<?xml version="1.0" standalone="no"?><!DOCTYPE svg PUBLIC "-//W3C//DTD SVG 1.1//EN" "http://www.w3.org/Graphics/SVG/1.1/DTD/svg11.dtd"><svg height="1024" node-id="1" sillyvg="true" template-height="1024" template-width="1024" version="1.1" viewBox="0 0 1024 1024" width="1024" xmlns="http://www.w3.org/2000/svg" xmlns:xlink="http://www.w3.org/1999/xlink"><defs node-id="49"></defs><path d="M 0.00 0.00 L 1024.00 0.00 L 1024.00 1024.00 L 0.00 1024.00 Z" fill="none" node-id="51" stroke="none" target-height="1024" target-width="1024" target-x="0" target-y="0"></path><g node-id="136"><path d="M 856.14 689.93 C 853.90 690.49 851.53 689.79 849.94 688.11 C 848.35 686.43 847.80 684.02 848.49 681.81 C 849.17 679.61 851.00 677.94 853.26 677.46 C 855.08 677.03 887.38 669.90 915.26 683.34 C 969.94 625.58 985.68 555.77 931.81 486.70 C 755.88 261.12 980.81 337.50 808.81 139.70 C 718.30 35.56 582.27 31.17 468.00 67.59 C 472.85 81.05 474.60 96.89 468.38 113.74 C 467.16 117.05 463.48 118.75 460.17 117.53 C 456.86 116.31 455.16 112.63 456.38 109.32 C 461.38 95.86 459.81 82.89 455.70 71.67 C 358.40 105.67 279.15 168.44 261.39 222.19 C 246.69 266.66 212.25 296.53 188.93 317.00 C 151.76 349.64 112.61 372.15 103.87 432.12 C 101.10 451.12 99.39 467.91 99.50 483.56 C 117.32 485.76 137.80 493.13 151.26 513.31 C 152.20 514.72 152.54 516.45 152.21 518.12 C 151.88 519.78 150.89 521.25 149.48 522.19 C 146.54 524.15 142.57 523.35 140.61 520.41 C 130.36 505.05 114.50 498.84 100.06 496.66 C 105.38 563.04 150.26 613.48 300.45 741.10 C 463.34 879.51 775.07 817.54 905.45 693.10 C 882.33 684.13 856.50 689.84 856.14 689.93 Z" fill="#8a9ff2" fill-rule="nonzero" group-id="1" node-id="55" stroke="none" target-height="848.34" target-width="886.29" target-x="99.39" target-y="31.17"></path></g><path d="M 303.88 172.12 C 305.60 174.24 306.81 176.73 307.39 179.40 C 309.29 188.21 303.53 195.87 303.28 196.19 C 302.56 197.13 301.23 197.31 300.29 196.59 C 299.35 195.87 299.17 194.54 299.89 193.60 C 299.94 193.53 304.71 187.14 303.22 180.27 C 302.22 175.86 298.90 172.08 293.22 169.04 C 289.83 167.22 287.34 166.98 285.80 168.32 C 282.03 171.64 282.71 184.10 285.80 192.21 C 286.27 193.47 286.68 194.45 287.01 195.21 L 288.71 195.86 C 289.49 196.18 290.02 196.93 290.04 197.78 C 290.12 200.78 288.69 201.55 287.83 201.72 C 286.27 202.04 285.13 201.03 283.89 198.62 C 282.89 198.26 281.62 197.84 280.24 197.41 C 266.40 193.07 256.01 192.60 251.75 196.11 C 249.75 197.75 249.00 200.35 249.42 204.05 C 249.78 208.23 251.94 212.05 255.33 214.52 C 266.85 223.23 290.69 219.41 290.93 219.37 C 292.09 219.18 293.19 219.96 293.39 221.12 C 293.58 222.29 292.79 223.39 291.63 223.58 C 290.63 223.76 265.75 227.74 252.76 217.93 C 248.44 214.75 245.68 209.87 245.18 204.53 C 244.60 199.35 245.90 195.41 249.04 192.82 C 256.04 187.03 270.57 189.91 281.51 193.34 L 281.68 193.34 C 278.99 185.98 276.68 170.59 282.99 165.07 C 285.06 163.25 288.86 161.80 295.24 165.23 C 298.55 166.92 301.49 169.27 303.88 172.12 Z" fill="#231815" fill-rule="nonzero" node-id="58" stroke="none" target-height="65.94" target-width="64.69" target-x="244.6" target-y="161.8"></path><path d="M 290.81 241.42 C 291.28 242.00 291.41 242.78 291.16 243.48 C 290.91 244.18 290.30 244.70 289.57 244.84 L 225.01 257.84 C 223.86 258.07 222.73 257.32 222.50 256.17 C 222.27 255.02 223.02 253.89 224.17 253.66 L 288.73 240.66 C 289.51 240.50 290.31 240.80 290.81 241.42 Z" fill="#040000" fill-rule="nonzero" node-id="60" stroke="none" target-height="17.567276" target-width="69.145294" target-x="222.26804" target-y="240.50468"></path><path d="M 317.25 142.20 C 317.38 142.38 317.49 142.57 317.58 142.77 L 329.25 173.46 C 329.45 173.99 329.44 174.57 329.20 175.09 C 328.97 175.61 328.55 176.01 328.02 176.21 C 326.92 176.62 325.69 176.08 325.26 174.98 L 313.59 144.29 C 313.21 143.31 313.60 142.19 314.52 141.66 C 315.44 141.14 316.60 141.37 317.25 142.20 Z" fill="#040000" fill-rule="nonzero" node-id="62" stroke="none" target-height="35.484253" target-width="16.246582" target-x="313.20505" target-y="141.14035"></path><path d="M 297.85 259.93 C 298.54 260.78 298.47 262.01 297.69 262.78 L 279.42 280.84 C 278.59 281.66 277.25 281.66 276.42 280.84 C 276.01 280.45 275.79 279.91 275.79 279.34 C 275.79 278.77 276.01 278.23 276.42 277.84 L 294.69 259.77 C 295.52 258.95 296.86 258.95 297.69 259.77 C 297.75 259.82 297.80 259.87 297.85 259.93 Z" fill="#040000" fill-rule="nonzero" node-id="64" stroke="none" target-height="22.711945" target-width="22.749908" target-x="275.78537" target-y="258.94632"></path><path d="M 781.66 919.06 C 781.66 949.95 685.24 975.00 566.29 975.00 C 447.34 975.00 350.92 949.95 350.92 919.06 C 350.92 888.17 447.34 863.12 566.29 863.12 C 685.24 863.12 781.66 888.17 781.66 919.06 Z" fill="#040000" fill-rule="nonzero" node-id="66" stroke="none" target-height="111.880005" target-width="430.73996" target-x="350.92" target-y="863.12"></path><path d="M 566.29 977.13 C 444.29 977.13 348.78 951.62 348.78 919.06 C 348.78 886.50 444.32 861.00 566.29 861.00 C 688.26 861.00 783.79 886.51 783.79 919.08 C 783.79 951.65 688.25 977.13 566.29 977.13 Z M 566.29 865.25 C 450.70 865.25 353.05 889.89 353.05 919.06 C 353.05 948.23 450.70 972.87 566.29 972.87 C 681.88 972.87 779.52 948.23 779.52 919.06 C 779.52 889.89 681.87 865.25 566.29 865.25 Z" fill="#040000" fill-rule="nonzero" node-id="68" stroke="none" target-height="116.130005" target-width="435.00998" target-x="348.78" target-y="861"></path><path d="M 521.56 503.39 L 590.82 503.39 C 599.10 503.39 605.82 510.11 605.82 518.39 L 605.82 916.08 C 605.82 926.61 597.29 935.14 586.76 935.14 L 541.76 935.14 C 522.25 935.14 506.44 919.33 506.44 899.82 L 506.44 518.43 C 506.43 514.42 508.02 510.58 510.86 507.75 C 513.70 504.93 517.55 503.36 521.56 503.39 Z" fill="#ffffff" fill-rule="nonzero" node-id="70" stroke="none" target-height="431.78207" target-width="99.39081" target-x="506.4292" target-y="503.35794"></path><path d="M 588.67 937.28 L 523.67 937.28 C 513.04 937.24 504.43 928.63 504.39 918.00 L 504.39 503.39 C 504.39 502.21 505.34 501.26 506.52 501.26 L 605.86 501.26 C 607.04 501.26 607.99 502.21 607.99 503.39 L 607.99 918.00 C 607.95 928.65 599.32 937.26 588.67 937.28 Z M 508.67 505.53 L 508.67 918.00 C 508.71 926.28 515.43 932.98 523.71 933.00 L 588.71 933.00 C 596.98 932.97 603.68 926.27 603.72 918.00 L 603.72 505.53 Z" fill="#040000" fill-rule="nonzero" node-id="72" stroke="none" target-height="436.02002" target-width="103.599976" target-x="504.39" target-y="501.26"></path><path d="M 560.00 503.39 L 605.85 503.39 L 605.85 503.39 L 605.85 918.24 C 605.85 927.57 598.28 935.14 588.95 935.14 L 560.00 935.14 L 560.00 935.14 L 560.00 503.39 L 560.00 503.39 Z" fill="#ffffff" fill-rule="nonzero" node-id="74" stroke="none" target-height="431.75" target-width="45.849976" target-x="560" target-y="503.39"></path><path d="M 588.67 937.28 L 560.00 937.28 C 559.43 937.28 558.89 937.05 558.49 936.65 C 558.09 936.25 557.87 935.71 557.87 935.14 L 557.87 503.39 C 557.87 502.21 558.82 501.26 560.00 501.26 L 605.85 501.26 C 607.03 501.26 607.98 502.21 607.98 503.39 L 607.98 918.00 C 607.94 928.64 599.31 937.26 588.67 937.28 Z M 562.14 933.00 L 588.67 933.00 C 596.96 932.99 603.68 926.29 603.72 918.00 L 603.72 505.53 L 562.14 505.53 Z" fill="#040000" fill-rule="nonzero" node-id="76" stroke="none" target-height="436.02002" target-width="50.11267" target-x="557.8673" target-y="501.26"></path><path d="M 724.54 638.00 C 716.71 638.00 707.54 636.46 696.87 632.46 C 681.02 626.52 679.06 617.36 679.87 611.30 C 649.30 602.36 607.54 571.30 605.33 569.59 C 604.47 568.86 604.32 567.58 605.00 566.68 C 605.68 565.77 606.94 565.55 607.89 566.17 C 608.42 566.58 651.22 598.48 680.89 607.26 C 685.05 595.81 699.95 585.17 707.89 587.95 C 710.59 588.88 714.57 592.04 711.02 602.69 C 709.59 607.50 705.82 611.27 701.00 612.69 C 696.37 614.14 690.53 613.84 684.00 612.34 C 683.34 619.10 688.24 624.61 698.38 628.42 C 741.56 644.61 757.72 619.03 758.38 617.93 C 758.99 616.92 760.30 616.60 761.30 617.21 C 762.31 617.81 762.64 619.12 762.03 620.13 C 761.89 620.36 750.94 638.00 724.54 638.00 Z M 685.00 608.30 C 690.69 609.60 695.74 609.85 699.69 608.62 C 703.22 607.59 705.97 604.82 706.98 601.29 C 707.81 598.81 709.41 592.94 706.51 591.93 C 701.72 590.28 688.85 598.33 685.00 608.30 Z" fill="#040000" fill-rule="nonzero" node-id="78" stroke="none" target-height="79.06122" target-width="158.31384" target-x="604.32367" target-y="565.54877"></path><path d="M 664.39 246.91 C 664.39 246.91 757.89 229.27 763.18 303.32 C 768.56 378.64 784.00 457.32 794.87 505.90 C 797.54 517.92 794.86 530.50 787.53 540.39 C 780.20 550.28 768.94 556.50 756.66 557.43 L 694.14 562.24 Z" fill="#040000" fill-rule="nonzero" node-id="80" stroke="none" target-height="332.96997" target-width="133.15216" target-x="664.39" target-y="229.27"></path><path d="M 694.14 564.37 C 693.04 564.37 692.12 563.53 692.02 562.44 L 662.27 247.11 C 662.17 246.01 662.92 245.02 664.00 244.82 C 666.00 244.44 713.67 235.82 743.21 258.54 C 756.49 268.77 763.93 283.79 765.31 303.17 C 770.58 377.00 785.43 453.92 797.00 505.43 C 799.81 518.05 797.00 531.27 789.29 541.65 C 781.59 552.04 769.76 558.57 756.87 559.55 L 694.35 564.36 Z M 666.71 248.70 L 696.07 560.00 L 756.49 555.35 C 768.15 554.47 778.85 548.56 785.82 539.17 C 792.78 529.78 795.33 517.82 792.79 506.41 C 781.23 454.75 766.34 377.63 761.05 303.53 C 759.76 285.41 752.88 271.43 740.60 261.97 C 715.78 242.79 675.87 247.34 666.71 248.70 Z" fill="#040000" fill-rule="nonzero" node-id="82" stroke="none" target-height="328.55" target-width="137.63892" target-x="662.16864" target-y="235.82"></path><path d="M 384.85 270.70 L 664.39 246.91 C 675.80 245.92 687.05 250.08 695.09 258.24 C 703.12 266.40 707.10 277.72 705.93 289.11 C 699.44 351.90 690.93 467.27 702.77 562.24 L 300.67 577.70 C 289.15 578.15 278.03 573.42 270.35 564.82 C 262.68 556.22 259.25 544.64 261.00 533.24 C 268.00 487.52 279.27 416.11 289.72 357.54 C 298.11 310.39 337.13 274.77 384.85 270.70 Z" fill="#ffffff" fill-rule="nonzero" node-id="84" stroke="none" target-height="332.22363" target-width="447.84808" target-x="259.24786" target-y="245.92375"></path><path d="M 299.16 579.87 C 287.26 579.87 275.96 574.67 268.22 565.63 C 260.48 556.59 257.07 544.63 258.89 532.87 C 266.31 484.58 277.32 414.87 287.62 357.13 C 296.22 309.05 336.01 272.73 384.67 268.54 L 384.85 270.66 L 384.67 268.54 L 664.22 244.75 C 676.26 243.71 688.14 248.09 696.61 256.71 C 705.09 265.32 709.28 277.27 708.05 289.29 C 701.75 350.19 692.97 466.61 704.89 561.93 C 704.96 562.52 704.79 563.11 704.41 563.56 C 704.03 564.01 703.48 564.29 702.89 564.33 L 300.79 579.79 C 300.22 579.85 299.69 579.87 299.16 579.87 Z M 667.69 248.87 C 666.69 248.87 665.62 248.87 664.57 249.01 L 385.00 272.83 C 338.27 276.87 300.06 311.75 291.79 357.92 C 281.50 415.63 270.49 485.29 263.08 533.56 C 261.43 544.33 264.67 555.27 271.92 563.39 C 279.17 571.52 289.68 575.98 300.56 575.56 L 700.34 560.18 C 688.79 464.87 697.51 349.48 703.78 288.88 C 704.83 278.66 701.50 268.48 694.61 260.85 C 687.73 253.23 677.93 248.88 667.66 248.88 Z" fill="#040000" fill-rule="nonzero" node-id="86" stroke="none" target-height="336.16074" target-width="452.21558" target-x="257.06848" target-y="243.70926"></path><path d="M 314.40 363.74 L 642.36 337.85 L 633.73 381.00 L 305.77 398.26 L 314.40 363.74 Z" fill="#040000" fill-rule="nonzero" node-id="88" stroke="none" target-height="60.410004" target-width="336.59" target-x="305.77" target-y="337.85"></path><path d="M 305.77 400.39 C 305.11 400.40 304.49 400.09 304.08 399.58 C 303.68 399.06 303.54 398.38 303.70 397.74 L 312.33 363.22 C 312.55 362.33 313.32 361.68 314.24 361.61 L 642.24 335.72 C 642.91 335.67 643.56 335.93 644.00 336.43 C 644.45 336.94 644.63 337.61 644.50 338.27 L 635.87 381.42 C 635.68 382.38 634.85 383.09 633.87 383.13 L 305.87 400.39 Z M 316.10 365.74 L 308.54 396.00 L 632.00 379.00 L 639.75 340.24 Z" fill="#040000" fill-rule="nonzero" node-id="90" stroke="none" target-height="64.72565" target-width="341.09473" target-x="303.53528" target-y="335.66974"></path><path d="M 625.10 363.74 C 625.10 363.74 569.42 501.82 577.37 605.39 L 219.47 614.00 C 219.47 614.00 267.19 424.13 346.72 381.00 Z" fill="#ffffff" fill-rule="nonzero" node-id="92" stroke="none" target-height="250.26001" target-width="405.62997" target-x="219.47" target-y="363.74"></path><path d="M 219.47 616.15 C 218.81 616.15 218.19 615.85 217.78 615.33 C 217.38 614.81 217.23 614.14 217.39 613.50 C 226.52 579.27 237.85 545.66 251.30 512.88 C 280.52 442.26 312.30 397.26 345.71 379.12 C 345.98 378.98 346.28 378.89 346.59 378.87 L 625.00 361.61 C 625.73 361.55 626.44 361.89 626.86 362.49 C 627.29 363.08 627.39 363.86 627.11 364.54 C 626.56 365.91 571.72 503.35 579.54 605.23 C 579.58 605.81 579.39 606.38 579.00 606.82 C 578.60 607.25 578.05 607.51 577.46 607.52 L 219.56 616.15 Z M 347.33 383.15 C 274.91 422.97 228.47 588.54 222.25 611.87 L 575.09 603.36 C 568.73 509.36 613.81 387.15 621.89 366.12 Z" fill="#040000" fill-rule="nonzero" node-id="94" stroke="none" target-height="254.59586" target-width="410.15436" target-x="217.23328" target-y="361.55466"></path><path d="M 625.10 355.11 C 625.10 355.11 556.05 545.00 504.27 570.87 L 141.79 570.87 C 141.79 570.87 288.51 458.67 323.00 381.00 Z" fill="#ffffff" fill-rule="nonzero" node-id="96" stroke="none" target-height="215.76001" target-width="483.31" target-x="141.79" target-y="355.11"></path><path d="M 504.27 573.00 L 141.79 573.00 C 140.87 573.00 140.06 572.42 139.76 571.55 C 139.47 570.68 139.77 569.72 140.50 569.17 C 141.96 568.05 287.18 456.42 321.08 380.17 C 321.40 379.46 322.07 378.98 322.85 378.91 L 624.91 353.00 C 625.64 352.91 626.36 353.23 626.79 353.83 C 627.22 354.40 627.34 355.15 627.10 355.83 C 624.27 363.61 557.17 546.83 505.22 572.77 C 504.92 572.92 504.60 573.00 504.27 573.00 Z M 148.00 568.73 L 503.76 568.73 C 550.53 544.52 612.68 382.25 621.92 357.52 L 324.46 383.00 C 292.90 452.14 173.73 548.46 148.00 568.73 Z" fill="#040000" fill-rule="nonzero" node-id="98" stroke="none" target-height="220.09393" target-width="487.8663" target-x="139.47208" target-y="352.90894"></path><path d="M 301.10 469.51 C 300.27 469.51 299.51 469.03 299.16 468.27 C 298.81 467.51 298.94 466.62 299.48 465.99 C 306.40 457.92 329.67 431.85 338.35 435.06 C 339.92 435.64 341.79 437.26 341.79 441.68 C 341.79 452.11 352.59 460.90 363.03 463.36 C 369.53 464.90 374.49 463.64 376.31 460.00 C 383.02 446.58 491.57 451.31 513.31 452.40 C 514.48 452.47 515.37 453.46 515.31 454.63 C 515.31 455.20 515.07 455.75 514.64 456.14 C 514.21 456.52 513.64 456.70 513.07 456.63 C 450.59 453.50 383.77 454.63 380.14 461.88 C 377.38 467.40 370.65 469.50 362.07 467.49 C 350.01 464.64 337.55 454.20 337.55 441.65 C 337.55 440.01 337.21 439.15 336.89 439.03 C 332.89 437.62 316.05 453.21 302.74 468.74 C 302.34 469.23 301.73 469.51 301.10 469.51 Z" fill="#040000" fill-rule="nonzero" node-id="100" stroke="none" target-height="37.662384" target-width="216.55649" target-x="298.8104" target-y="431.85"></path><path d="M 455.33 514.50 L 307.53 514.50 C 306.41 514.42 305.54 513.49 305.54 512.37 C 305.54 511.24 306.41 510.31 307.53 510.23 L 455.33 510.23 C 456.45 510.31 457.32 511.24 457.32 512.37 C 457.32 513.49 456.45 514.42 455.33 514.50 Z" fill="#040000" fill-rule="nonzero" node-id="102" stroke="none" target-height="4.269989" target-width="151.7876" target-x="305.5362" target-y="510.23"></path><path d="M 584.79 897.67 L 562.00 897.67 C 561.20 897.72 560.44 897.33 560.03 896.65 C 559.61 895.96 559.61 895.11 560.03 894.42 C 560.44 893.74 561.20 893.35 562.00 893.40 L 584.76 893.40 C 585.88 893.48 586.75 894.41 586.75 895.53 C 586.75 896.66 585.88 897.59 584.76 897.67 Z" fill="#040000" fill-rule="nonzero" node-id="104" stroke="none" target-height="4.3792114" target-width="27.14386" target-x="559.6099" target-y="893.3454"></path><path d="M 584.79 658.71 L 562.00 658.71 C 560.82 658.71 559.87 657.76 559.87 656.58 C 559.87 655.40 560.82 654.45 562.00 654.45 L 584.76 654.45 C 585.94 654.45 586.89 655.40 586.89 656.58 C 586.89 657.76 585.94 658.71 584.76 658.71 Z" fill="#040000" fill-rule="nonzero" node-id="106" stroke="none" target-height="4.26001" target-width="27.02002" target-x="559.87" target-y="654.45"></path><path d="M 584.79 914.74 L 562.00 914.74 C 561.20 914.79 560.44 914.40 560.03 913.72 C 559.61 913.03 559.61 912.18 560.03 911.49 C 560.44 910.81 561.20 910.42 562.00 910.47 L 584.76 910.47 C 585.88 910.55 586.75 911.48 586.75 912.61 C 586.75 913.73 585.88 914.66 584.76 914.74 Z" fill="#040000" fill-rule="nonzero" node-id="108" stroke="none" target-height="4.3792114" target-width="27.14386" target-x="559.6099" target-y="910.4154"></path><path d="M 152.18 288.40 C 152.18 288.40 153.49 324.81 175.18 333.82 C 175.18 333.82 112.80 379.62 89.97 362.65 C 89.97 362.65 48.86 332.11 61.26 305.89 C 61.23 305.89 123.87 317.00 152.18 288.40 Z" fill="#ffffff" fill-rule="nonzero" node-id="110" stroke="none" target-height="91.22" target-width="126.31999" target-x="48.86" target-y="288.4"></path><path d="M 103.08 368.51 C 97.54 368.51 92.59 367.28 88.67 364.36 C 86.93 363.07 46.31 332.47 59.30 305.00 C 59.70 304.12 60.65 303.64 61.60 303.82 C 62.21 303.92 123.47 314.38 150.67 286.93 C 151.27 286.33 152.17 286.14 152.96 286.45 C 153.75 286.76 154.28 287.51 154.32 288.36 C 154.32 288.71 155.83 323.51 175.97 331.88 C 176.68 332.18 177.17 332.83 177.26 333.60 C 177.35 334.36 177.03 335.11 176.41 335.57 C 174.24 337.13 131.12 368.51 103.08 368.51 Z M 62.53 308.26 C 53.20 332.26 90.82 360.65 91.21 360.94 C 109.87 374.80 158.64 342.71 171.00 334.13 C 155.54 325.13 151.46 302.59 150.40 292.94 C 123.00 316.11 72.54 309.79 62.53 308.26 Z" fill="#040000" fill-rule="nonzero" node-id="112" stroke="none" target-height="88.6611" target-width="131.04166" target-x="46.31" target-y="286.1389"></path><path d="M 90.00 328.05 C 95.45 319.20 95.40 329.85 97.73 332.85 C 100.06 335.85 106.93 336.55 110.29 337.33 C 114.42 338.33 118.47 339.06 122.61 337.68 C 128.94 335.57 132.39 328.38 139.38 327.55 C 142.08 327.23 142.11 322.96 139.38 323.28 C 133.92 323.93 131.11 326.60 126.91 329.93 C 120.92 334.42 112.92 335.15 106.22 331.83 C 95.96 326.64 103.71 328.47 100.89 323.57 C 96.60 316.13 90.27 319.47 86.32 325.89 C 84.88 328.24 88.57 330.38 90.00 328.05 Z" fill="#040000" fill-rule="nonzero" node-id="114" stroke="none" target-height="22.929993" target-width="57.230003" target-x="84.88" target-y="316.13"></path><path d="M 567.72 104.71 C 567.72 104.71 624.61 110.40 641.72 99.02 C 641.72 99.02 647.41 173.02 687.24 178.67 C 687.24 178.67 618.96 190.05 613.24 195.74 C 613.23 195.74 567.72 173.00 567.72 104.71 Z" fill="#ffffff" fill-rule="nonzero" node-id="116" stroke="none" target-height="96.72001" target-width="119.52002" target-x="567.72" target-y="99.02"></path><path d="M 613.23 197.87 C 612.88 197.88 612.54 197.80 612.23 197.64 C 611.76 197.41 565.53 173.50 565.53 104.71 C 565.53 104.11 565.78 103.53 566.23 103.13 C 566.68 102.72 567.28 102.52 567.88 102.58 C 568.44 102.64 624.20 108.07 640.44 97.24 C 641.07 96.82 641.88 96.76 642.56 97.09 C 643.24 97.43 643.69 98.09 643.75 98.85 C 643.81 99.58 649.75 171.18 687.44 176.56 C 688.48 176.72 689.24 177.61 689.24 178.66 C 689.24 179.72 688.48 180.61 687.44 180.77 C 654.67 186.24 618.02 193.87 614.64 197.24 C 614.27 197.62 613.76 197.84 613.23 197.87 Z M 569.87 107.05 C 570.80 165.71 606.47 189.34 613.12 193.24 C 621.86 188.35 658.79 181.44 677.65 178.14 C 648.77 165.38 641.37 115.89 639.87 102.46 C 622.00 110.88 580.37 108.00 569.87 107.05 Z" fill="#040000" fill-rule="nonzero" node-id="118" stroke="none" target-height="101.119286" target-width="123.71503" target-x="565.5296" target-y="96.76232"></path><path d="M 594.40 134.32 C 596.02 132.96 617.34 117.82 617.52 128.67 C 617.57 131.80 604.86 137.56 602.36 138.98 C 599.86 140.40 593.80 143.58 595.93 147.48 C 597.93 151.15 604.13 148.48 606.80 147.72 C 609.80 146.86 612.59 145.72 615.73 145.35 C 620.40 144.87 620.53 144.23 619.83 148.67 C 619.18 152.73 616.83 156.25 616.48 160.44 C 616.48 161.20 616.88 161.90 617.54 162.28 C 620.85 164.16 622.75 162.81 626.54 161.53 C 631.54 159.85 643.68 157.62 646.81 153.45 C 645.16 155.64 648.87 157.77 650.50 155.60 L 651.28 154.60 C 651.67 153.93 651.67 153.11 651.28 152.44 C 649.38 148.81 646.53 149.96 643.15 151.05 C 637.84 152.76 632.62 154.85 627.37 156.75 C 623.62 158.10 621.87 160.62 621.90 156.07 C 621.90 154.21 623.43 151.63 623.99 149.84 C 628.40 135.97 613.90 142.37 605.72 143.64 C 598.91 144.70 606.45 141.76 609.11 140.20 C 612.30 138.45 615.31 136.39 618.11 134.06 C 621.00 131.51 625.42 127.27 623.28 122.85 C 618.02 111.98 596.44 127.21 591.48 131.34 C 589.37 133.10 592.40 136.10 594.48 134.34 Z" fill="#040000" fill-rule="nonzero" node-id="120" stroke="none" target-height="52.18" target-width="62.30005" target-x="589.37" target-y="111.98"></path><path d="M 818.10 536.00 C 818.10 536.00 876.10 523.24 897.64 491.73 C 897.64 491.73 931.41 564.09 965.13 577.88 L 891.13 632.09 C 891.13 632.09 836.39 603.92 818.10 536.00 Z" fill="#ffffff" fill-rule="nonzero" node-id="122" stroke="none" target-height="140.36002" target-width="147.03003" target-x="818.1" target-y="491.73"></path><path d="M 891.12 634.20 C 890.77 634.20 890.43 634.12 890.12 633.96 C 889.57 633.68 834.35 604.60 816.02 536.52 C 815.87 535.96 815.95 535.36 816.25 534.86 C 816.55 534.36 817.05 533.99 817.62 533.86 C 818.19 533.74 875.06 520.92 895.86 490.47 C 896.29 489.84 897.03 489.49 897.79 489.55 C 898.56 489.61 899.23 490.08 899.55 490.77 C 899.89 491.49 933.35 562.54 965.91 575.85 C 966.62 576.14 967.13 576.80 967.22 577.57 C 967.32 578.33 966.99 579.09 966.37 579.55 L 892.37 633.76 C 892.01 634.04 891.57 634.19 891.12 634.20 Z M 820.74 537.54 C 837.61 596.90 883.17 625.09 890.96 629.54 L 960.96 578.26 C 931.80 563.26 904.10 509.75 897.27 495.83 C 876.49 522.53 831.36 534.93 820.74 537.54 Z" fill="#040000" fill-rule="nonzero" node-id="124" stroke="none" target-height="144.71686" target-width="151.4472" target-x="815.86896" target-y="489.48523"></path><path d="M 863.66 563.16 C 868.90 575.94 873.62 588.91 877.81 602.06 C 878.11 603.07 879.10 603.71 880.15 603.57 C 881.19 603.43 881.98 602.54 882.00 601.49 C 882.25 598.10 881.27 585.21 884.06 582.81 C 883.42 583.36 887.06 582.59 887.60 582.43 C 889.40 581.82 891.02 580.77 892.30 579.37 C 896.62 575.24 897.65 571.00 903.39 567.68 C 906.39 565.97 908.39 565.38 909.92 562.13 C 911.11 559.67 907.43 557.51 906.23 559.98 C 904.23 563.98 898.14 564.86 895.05 568.09 C 892.79 570.45 891.77 574.28 889.29 576.36 C 887.20 578.10 883.77 577.36 881.93 578.49 C 880.09 579.62 879.68 580.57 879.15 582.49 C 877.58 588.26 878.15 595.55 877.73 601.49 L 881.92 600.93 C 877.72 587.77 873.00 574.80 867.77 562.03 C 866.77 559.52 862.62 560.62 863.66 563.16 Z" fill="#040000" fill-rule="nonzero" node-id="126" stroke="none" target-height="46.19989" target-width="48.48999" target-x="862.62" target-y="557.51"></path><path d="M 731.92 683.26 C 731.92 683.26 731.04 681.65 729.72 679.00 C 723.90 667.33 709.48 635.54 723.39 632.06 C 740.45 627.80 731.92 683.26 731.92 683.26 Z" fill="#ffffff" fill-rule="nonzero" node-id="128" stroke="none" target-height="55.460022" target-width="30.970032" target-x="709.48" target-y="627.8"></path><path d="M 731.92 685.40 C 731.14 685.40 730.41 684.97 730.04 684.28 C 730.04 684.28 729.15 682.65 727.81 679.95 C 721.63 667.57 711.97 645.29 716.64 635.14 C 717.80 632.54 720.10 630.64 722.87 629.99 C 725.53 629.23 728.39 629.89 730.44 631.75 C 740.29 640.75 734.70 679.23 734.03 683.59 C 733.89 684.49 733.19 685.21 732.29 685.37 C 732.17 685.39 732.04 685.40 731.92 685.40 Z M 725.19 634.00 C 724.75 634.01 724.32 634.06 723.90 634.17 C 722.39 634.49 721.12 635.53 720.52 636.96 C 717.78 642.96 721.58 657.50 730.70 676.21 C 732.23 662.53 733.37 640.21 727.56 634.95 C 726.93 634.33 726.07 633.99 725.19 634.00 Z" fill="#040000" fill-rule="nonzero" node-id="130" stroke="none" target-height="56.170776" target-width="28.320007" target-x="711.97" target-y="629.22925"></path><path d="M 576.86 606.55 C 576.86 606.55 577.86 605.01 579.54 602.55 C 586.96 591.83 607.88 563.89 617.62 574.40 C 629.58 587.32 576.86 606.55 576.86 606.55 Z" fill="#ffffff" fill-rule="nonzero" node-id="132" stroke="none" target-height="42.659973" target-width="52.72003" target-x="576.86" target-y="563.89"></path><path d="M 576.86 608.69 C 576.08 608.69 575.36 608.26 574.99 607.58 C 574.61 606.89 574.64 606.06 575.06 605.40 C 575.06 605.40 576.06 603.83 577.78 601.40 C 585.66 590.03 600.53 570.83 611.69 570.04 C 614.52 569.81 617.30 570.92 619.19 573.04 C 621.15 574.99 621.95 577.83 621.29 580.52 C 618.16 593.52 581.73 607.12 577.59 608.63 C 577.35 608.69 577.10 608.71 576.86 608.69 Z M 612.43 574.23 L 612.00 574.23 C 605.46 574.70 594.50 585.06 582.50 602.06 C 595.23 596.81 615.30 587.06 617.15 579.44 C 617.48 578.14 617.06 576.76 616.07 575.86 C 615.16 574.80 613.83 574.21 612.43 574.23 Z" fill="#040000" fill-rule="nonzero" node-id="134" stroke="none" target-height="38.8985" target-width="47.336304" target-x="574.6128" target-y="569.8148"></path></svg>