<?xml version="1.0" standalone="no"?><!DOCTYPE svg PUBLIC "-//W3C//DTD SVG 1.1//EN" "http://www.w3.org/Graphics/SVG/1.1/DTD/svg11.dtd"><svg height="1569" node-id="1" sillyvg="true" template-height="1569" template-width="1600" version="1.1" viewBox="0 0 1600 1569" width="1600" xmlns="http://www.w3.org/2000/svg" xmlns:xlink="http://www.w3.org/1999/xlink"><defs node-id="144"></defs><g node-id="146"><g node-id="147"><path d="M 809.22 85.28 L 803.22 81.42 L 797.41 78.24 L 791.76 75.68 L 786.25 73.71 L 780.87 72.28 L 775.58 71.37 L 770.38 70.97 L 764.89 71.13 L 759.56 71.89 L 754.36 73.26 L 749.35 75.20 L 744.68 77.66 L 740.30 80.64 L 737.26 83.20 L 734.50 86.00 L 732.01 89.04 L 729.78 92.35 L 727.90 95.84 L 726.37 99.54 L 725.21 103.47 L 724.41 107.65 L 724.02 113.04 L 724.25 118.28 L 725.07 123.40 L 726.48 128.44 L 728.41 133.31 L 730.81 138.10 L 733.71 142.82 L 737.14 147.49 L 742.18 153.30 L 747.89 158.96 L 754.33 164.45 L 761.11 169.54 L 768.33 174.38 L 776.01 178.98 L 783.90 183.24 L 791.93 187.16 L 800.13 190.76 L 808.47 194.04 L 816.63 196.93 L 824.65 199.42 L 832.77 201.62 L 840.38 203.35 L 847.52 204.65 L 854.74 205.60 L 861.10 206.06 L 866.69 206.09 L 867.68 205.91 L 868.50 205.46 L 869.19 204.72 L 874.59 196.43 L 879.79 187.64 L 884.78 178.31 L 889.35 168.77 L 893.50 158.95 L 897.23 148.82 L 900.43 138.52 L 903.02 128.15 L 905.01 117.69 L 906.06 109.77 L 906.68 101.92 L 906.86 94.13 L 906.61 86.39 L 905.88 78.68 L 904.62 71.11 L 902.84 63.68 L 900.53 56.37 L 898.71 52.04 L 896.41 47.83 L 893.61 43.72 L 890.43 39.91 L 886.91 36.50 L 883.04 33.46 L 879.92 31.49 L 876.70 29.88 L 873.36 28.62 L 869.89 27.70 L 866.36 27.19 L 862.76 27.15 L 859.06 27.59 L 855.22 28.53 L 848.91 30.86 L 843.20 33.58 L 838.02 36.69 L 833.35 40.17 L 829.13 44.04 L 825.35 48.31 L 821.99 53.00 L 819.04 58.16 L 816.50 63.81 L 814.38 70.01 L 812.71 76.80 L 811.50 84.25 L 811.22 85.28 L 810.79 85.71 L 810.18 85.75 L 809.22 85.28" fill="none" group-id="1,2" id="路径" node-id="7" stroke="#ffbdbc" stroke-linecap="butt" stroke-width="1" target-height="178.94" target-width="182.83997" target-x="724.02" target-y="27.15"></path><path d="M 520.94 313.87 L 525.28 336.25 L 530.19 358.48 L 535.68 380.55 L 541.74 402.49 L 548.38 424.29 L 555.59 445.97" fill="none" group-id="1,2" id="路径" node-id="8" stroke="#ffbdbc" stroke-linecap="butt" stroke-width="1" target-height="132.1" target-width="34.650024" target-x="520.94" target-y="313.87"></path><path d="M 555.59 445.97 L 545.44 475.68 L 545.00 476.46 L 544.37 476.83 L 543.47 476.84 L 536.50 475.43 L 523.96 472.88 L 508.24 469.74 L 491.73 466.55 L 476.84 463.83 L 465.96 462.14 L 462.26 461.84 L 461.50 462.00 L 461.35 462.52 L 461.50 462.85 L 462.00 463.06 L 541.16 478.87 L 542.45 479.34 L 543.18 480.04 L 543.50 481.01 L 543.38 482.37 L 536.16 511.06 L 535.67 511.86 L 534.78 512.12 L 462.34 513.25 L 462.06 513.34 L 461.38 513.84 L 460.96 514.48 L 461.06 514.77 L 461.72 514.90 L 534.72 515.18 L 535.62 515.37 L 536.13 515.87 L 536.31 516.78 L 536.51 521.77 L 537.19 526.51 L 538.32 531.02 L 539.92 535.33 L 541.98 539.46 L 544.53 543.44 L 547.59 547.28 L 548.14 548.22 L 547.95 548.79 L 546.94 549.22 L 483.16 561.78 L 482.52 562.15 L 482.47 562.90 L 483.02 563.09 L 485.90 562.94 L 494.50 561.69 L 506.35 559.60 L 519.52 557.10 L 532.11 554.62 L 542.20 552.58 L 547.88 551.43" fill="none" group-id="1,2" id="路径" node-id="9" stroke="#a99f9f" stroke-linecap="butt" stroke-width="1" target-height="117.120026" target-width="94.630035" target-x="460.96" target-y="445.97"></path><path d="M 547.88 551.43 L 549.43 554.36 L 550.42 557.06 L 550.92 559.58 L 550.97 561.97" fill="none" group-id="1,2" id="路径" node-id="10" stroke="#fff2e7" stroke-linecap="butt" stroke-width="1" target-height="10.539978" target-width="3.0899658" target-x="547.88" target-y="551.43"></path><path d="M 550.97 561.97 L 498.44 695.84" fill="none" group-id="1,2" id="路径" node-id="11" stroke="#ffbc9e" stroke-linecap="butt" stroke-width="1" target-height="133.87006" target-width="52.52997" target-x="498.44" target-y="561.97"></path><path d="M 498.44 695.84 L 497.66 696.09" fill="none" group-id="1,2" id="路径" node-id="12" stroke="#feb298" stroke-linecap="butt" stroke-width="1" target-height="0.25" target-width="0.7799988" target-x="497.66" target-y="695.84"></path><path d="M 497.66 696.09 L 272.31 702.40 L 270.77 702.73 L 269.44 703.59 L 29.94 927.53 L 29.28 928.41 L 29.44 928.80 L 30.53 928.97 L 148.11 926.12 L 245.80 923.27 L 325.97 920.43 L 335.65 920.23 L 343.00 920.40 L 348.44 920.84" fill="none" group-id="1,2" id="路径" node-id="13" stroke="#ffbc9e" stroke-linecap="butt" stroke-width="1" target-height="232.87994" target-width="468.38" target-x="29.28" target-y="696.09"></path><path d="M 348.44 920.84 L 197.75 1095.72 L 197.49 1096.29 L 197.58 1096.92 L 198.00 1097.40 L 198.62 1097.59 L 349.28 1097.84" fill="none" group-id="1,2" id="路径" node-id="14" stroke="#fec5a8" stroke-linecap="butt" stroke-width="1" target-height="176.99994" target-width="151.79" target-x="197.49" target-y="920.84"></path><path d="M 349.28 1097.84 L 349.25 1539.75 L 349.37 1540.35 L 349.70 1540.83 L 350.18 1541.16 L 350.78 1541.28 L 1307.00 1541.28 L 1307.87 1541.10 L 1308.35 1540.62 L 1308.53 1539.75 L 1308.56 1098.59" fill="none" group-id="1,2" id="路径" node-id="15" stroke="#ffbc9e" stroke-linecap="butt" stroke-width="1" target-height="443.44006" target-width="959.31006" target-x="349.25" target-y="1097.84"></path><path d="M 1308.56 1098.59 L 1403.59 1097.75 L 1404.27 1097.56 L 1404.76 1097.07 L 1404.95 1096.39 L 1404.78 1095.72 L 1310.16 920.31" fill="none" group-id="1,2" id="路径" node-id="16" stroke="#fec5a8" stroke-linecap="butt" stroke-width="1" target-height="178.27997" target-width="96.38989" target-x="1308.56" target-y="920.31"></path><path d="M 1310.16 920.31 L 1570.66 925.84 L 1570.99 925.74 L 1571.22 925.47 L 1571.27 925.13 L 1571.12 924.81 L 1381.47 718.43 L 1380.17 717.46 L 1378.59 717.03 L 1272.12 706.80 L 1165.62 696.81 L 1165.11 697.00 L 1163.19 698.22" fill="none" group-id="1,2" id="路径" node-id="17" stroke="#ffbc9e" stroke-linecap="butt" stroke-width="1" target-height="229.03003" target-width="408.08008" target-x="1163.19" target-y="696.81"></path><path d="M 1163.19 698.22 L 1162.69 697.23 L 1161.59 695.97" fill="none" group-id="1,2" id="路径" node-id="18" stroke="#feb298" stroke-linecap="butt" stroke-width="1" target-height="2.25" target-width="1.5999756" target-x="1161.59" target-y="695.97"></path><path d="M 1161.59 695.97 L 1125.28 591.00" fill="none" group-id="1,2" id="路径" node-id="19" stroke="#ffbc9e" stroke-linecap="butt" stroke-width="1" target-height="104.96997" target-width="36.309937" target-x="1125.28" target-y="591"></path><path d="M 1125.28 591.00 L 1130.97 584.11 L 1136.23 577.09 L 1141.06 569.95 L 1145.50 562.69 L 1149.53 555.28" fill="none" group-id="1,2" id="路径" node-id="20" stroke="#fff2e7" stroke-linecap="butt" stroke-width="1" target-height="35.71997" target-width="24.25" target-x="1125.28" target-y="555.28"></path><path d="M 1149.53 555.28 L 1162.11 556.81 L 1174.80 558.80 L 1187.60 561.23 L 1200.53 564.12 L 1202.47 564.40 L 1203.05 564.19 L 1203.05 563.71 L 1202.16 562.53 L 1200.97 561.81 L 1197.99 560.77 L 1189.78 558.77 L 1179.39 556.73 L 1168.68 554.85 L 1159.50 553.32 L 1153.72 552.34 L 1153.24 552.11 L 1152.93 551.67 L 1152.89 551.13 L 1153.12 550.65 L 1156.02 546.91 L 1158.35 543.09 L 1160.17 539.17 L 1161.49 535.13 L 1162.33 530.95 L 1162.68 526.59 L 1162.54 522.03 L 1161.88 517.22 L 1161.91 516.30 L 1162.31 515.81 L 1163.19 515.62 L 1213.28 515.62" fill="none" group-id="1,2" id="路径" node-id="21" stroke="#a99f9f" stroke-linecap="butt" stroke-width="1" target-height="48.78003" target-width="63.75" target-x="1149.53" target-y="515.62"></path><path d="M 1213.28 515.62 L 1215.04 523.07 L 1217.25 530.50 L 1219.92 537.93 L 1223.05 545.37 L 1227.75 555.03 L 1233.05 564.57 L 1238.97 573.99 L 1245.34 583.14 L 1252.08 592.02 L 1259.21 600.64 L 1266.65 609.00 L 1274.22 616.95 L 1281.91 624.49 L 1289.84 631.79 L 1297.61 638.51 L 1305.22 644.68 L 1308.27 646.81 L 1311.55 648.54 L 1315.09 649.87 L 1316.61 650.07 L 1318.09 649.65 L 1328.43 644.30 L 1338.77 638.40 L 1349.12 631.93 L 1359.18 625.04 L 1368.97 617.65 L 1378.51 609.77 L 1385.41 603.56 L 1392.03 597.12 L 1398.36 590.44 L 1404.42 583.52 L 1410.17 576.33 L 1415.51 568.95 L 1420.45 561.35 L 1424.99 553.55 L 1429.10 545.50 L 1432.70 537.28 L 1435.79 528.85 L 1438.38 520.22 L 1439.57 514.88 L 1440.37 509.51 L 1440.78 504.09 L 1440.78 498.66 L 1440.33 493.36 L 1439.45 488.20 L 1438.09 483.14 L 1436.26 478.39 L 1433.94 473.90 L 1431.86 470.74 L 1429.49 467.80 L 1426.80 465.08 L 1423.78 462.57 L 1420.56 460.40 L 1416.97 458.51 L 1412.97 456.89 L 1408.53 455.56 L 1402.27 454.30 L 1396.26 453.57 L 1390.49 453.36 L 1384.93 453.63 L 1379.35 454.38 L 1373.96 455.55 L 1368.73 457.14 L 1363.64 459.15 L 1358.72 461.53 L 1353.93 464.27 L 1349.26 467.36 L 1344.72 470.82 L 1339.00 475.82 L 1333.50 481.33 L 1328.22 487.37 L 1327.40 488.01 L 1326.78 487.92 L 1326.16 487.09 L 1323.30 481.40 L 1320.18 476.03 L 1316.80 470.97 L 1313.16 466.20 L 1309.19 461.67 L 1304.98 457.56 L 1300.54 453.85 L 1295.86 450.53 L 1290.91 447.62 L 1285.73 445.20 L 1280.31 443.25 L 1274.62 441.79 L 1268.86 440.89 L 1262.84 440.56 L 1256.50 440.83 L 1249.81 441.72 L 1245.27 442.80 L 1240.98 444.37 L 1236.92 446.43 L 1233.06 448.98 L 1229.38 452.07 L 1225.87 455.74 L 1222.53 460.03" fill="none" group-id="1,2" id="路径" node-id="22" stroke="#ffbdbc" stroke-linecap="butt" stroke-width="1" target-height="209.51001" target-width="227.5" target-x="1213.28" target-y="440.56"></path><path d="M 1222.53 460.03 L 1149.50 475.06 L 1148.41 475.08 L 1147.61 474.67 L 1147.00 473.78 L 1129.56 434.25" fill="none" group-id="1,2" id="路径" node-id="23" stroke="#a99f9f" stroke-linecap="butt" stroke-width="1" target-height="40.829987" target-width="92.96997" target-x="1129.56" target-y="434.25"></path><path d="M 1129.56 434.25 L 1136.79 413.81 L 1143.43 393.23 L 1149.48 372.49 L 1154.96 351.58 L 1159.86 330.50 L 1164.19 309.25" fill="none" group-id="1,2" id="路径" node-id="24" stroke="#ffbdbc" stroke-linecap="butt" stroke-width="1" target-height="125" target-width="34.629883" target-x="1129.56" target-y="309.25"></path><path d="M 1164.19 309.25 L 1167.28 291.71 L 1168.75 282.07 L 1170.02 271.84 L 1170.90 261.50 L 1171.26 251.15 L 1171.15 244.25 L 1170.68 237.57 L 1169.87 231.11 L 1168.61 224.74 L 1166.88 218.79 L 1164.70 213.22 L 1162.69 209.23 L 1160.34 205.53 L 1157.66 202.13 L 1154.63 198.98 L 1151.31 196.22 L 1147.55 193.78 L 1143.30 191.66 L 1138.52 189.88 L 1133.71 188.63 L 1128.28 187.77 L 1122.14 187.34 L 1115.22 187.40 L 1103.54 188.24 L 1091.95 189.57 L 1080.45 191.41 L 1069.02 193.76 L 1057.70 196.61 L 1046.57 199.95 L 1035.63 203.78 L 1024.86 208.12 L 1014.30 212.96 L 1004.02 218.28 L 994.02 224.09 L 984.27 230.41 L 974.87 237.20 L 965.83 244.47 L 957.15 252.25 L 948.81 260.53 L 948.05 261.11 L 947.21 261.35 L 946.25 261.25 L 901.56 248.97" fill="none" group-id="1,2" id="路径" node-id="25" stroke="#a99f9f" stroke-linecap="butt" stroke-width="1" target-height="121.91" target-width="269.7" target-x="901.56" target-y="187.34"></path><path d="M 901.56 248.97 L 894.61 247.23 L 887.62 246.05 L 880.57 245.41 L 873.44 245.31" fill="none" group-id="1,2" id="路径" node-id="26" stroke="#fff2e7" stroke-linecap="butt" stroke-width="1" target-height="3.6600037" target-width="28.119995" target-x="873.44" target-y="245.31"></path><path d="M 873.44 245.31 L 870.70 244.23 L 868.00 243.75 L 865.29 243.85 L 862.50 244.53" fill="none" group-id="1,2" id="路径" node-id="27" stroke="#a99f9f" stroke-linecap="butt" stroke-width="1" target-height="1.5599976" target-width="10.940002" target-x="862.5" target-y="243.75"></path><path d="M 862.50 244.53 L 855.71 243.44 L 848.93 242.93 L 842.13 242.99 L 835.28 243.62" fill="none" group-id="1,2" id="路径" node-id="28" stroke="#fff2e7" stroke-linecap="butt" stroke-width="1" target-height="1.6000061" target-width="27.21997" target-x="835.28" target-y="242.93"></path><path d="M 835.28 243.62 L 832.65 242.88 L 830.07 242.64 L 827.49 242.88 L 824.88 243.62" fill="none" group-id="1,2" id="路径" node-id="29" stroke="#a99f9f" stroke-linecap="butt" stroke-width="1" target-height="0.9799957" target-width="10.400024" target-x="824.88" target-y="242.64"></path><path d="M 824.88 243.62 L 818.00 243.59 L 811.18 243.99 L 804.40 244.82 L 797.66 246.09" fill="none" group-id="1,2" id="路径" node-id="30" stroke="#fff2e7" stroke-linecap="butt" stroke-width="1" target-height="2.5" target-width="27.220032" target-x="797.66" target-y="243.59"></path><path d="M 797.66 246.09 L 787.28 247.39 L 776.96 249.10 L 766.70 251.23 L 756.49 253.79 L 746.31 256.78 L 745.33 256.93 L 744.46 256.71 L 743.66 256.12 L 735.42 248.26 L 726.98 241.04 L 718.33 234.42 L 709.47 228.39 L 700.27 222.81 L 690.86 217.71 L 681.25 213.08 L 671.43 208.93 L 661.43 205.21 L 651.24 201.86 L 640.86 198.87 L 630.27 196.26 L 616.05 193.31 L 601.55 190.86 L 586.75 188.90 L 578.22 188.17 L 570.65 187.98 L 563.94 188.28 L 558.01 189.01 L 551.94 190.28 L 546.59 191.93 L 541.87 193.92 L 537.72 196.25 L 533.78 199.06 L 530.30 202.16 L 527.24 205.56 L 524.59 209.27 L 522.31 213.23 L 520.33 217.45 L 518.67 221.94 L 517.32 226.73 L 516.00 233.21 L 515.09 240.05 L 514.61 247.27 L 514.51 254.52 L 514.69 261.94 L 515.18 269.54 L 516.28 280.91 L 517.72 292.19 L 520.94 313.87" fill="none" group-id="1,2" id="路径" node-id="31" stroke="#a99f9f" stroke-linecap="butt" stroke-width="1" target-height="125.89" target-width="283.14996" target-x="514.51" target-y="187.98"></path><path d="M 797.66 246.09 L 798.14 254.60 L 799.20 266.14 L 800.03 272.39 L 801.11 278.62 L 802.51 284.66 L 804.16 289.91 L 805.55 293.23 L 807.04 295.87 L 808.60 297.92 L 810.01 299.21 L 811.48 300.05 L 813.03 300.48 L 814.72 300.53 L 816.16 300.07 L 817.28 299.06 L 818.87 296.53 L 820.29 293.45 L 821.54 289.72 L 822.91 283.88 L 823.91 277.34 L 824.56 270.68 L 824.92 264.10 L 825.08 252.14 L 824.88 243.62" fill="none" group-id="1,2" id="路径" node-id="32" stroke="#a99187" stroke-linecap="butt" stroke-width="1" target-height="56.910004" target-width="27.420044" target-x="797.66" target-y="243.62"></path><path d="M 835.28 243.62 L 836.19 254.26 L 837.50 264.85 L 839.23 275.38 L 841.38 285.86 L 843.94 296.31 L 844.56 297.84 L 845.52 299.14 L 846.77 300.17 L 848.27 300.86 L 849.90 301.16 L 851.51 301.05 L 853.04 300.54 L 854.44 299.65 L 855.91 298.10 L 857.28 296.05 L 858.53 293.40 L 859.96 289.11 L 861.13 283.97 L 861.96 278.57 L 862.54 272.85 L 862.88 267.10 L 863.03 261.57 L 862.92 251.63 L 862.50 244.53" fill="none" group-id="1,2" id="路径" node-id="33" stroke="#a99187" stroke-linecap="butt" stroke-width="1" target-height="57.54001" target-width="27.75" target-x="835.28" target-y="243.62"></path><path d="M 873.44 245.31 L 873.89 253.79 L 874.93 265.43 L 875.76 271.76 L 876.82 278.09 L 878.20 284.24 L 879.83 289.59 L 881.20 292.99 L 882.67 295.69 L 884.20 297.79 L 885.60 299.14 L 887.04 300.00 L 888.57 300.46 L 890.22 300.53 L 891.62 300.12 L 892.75 299.22 L 894.28 297.06 L 895.64 294.47 L 896.83 291.38 L 898.15 286.50 L 899.16 280.96 L 899.86 275.27 L 900.35 269.44 L 900.95 258.29 L 901.56 248.97" fill="none" group-id="1,2" id="路径" node-id="34" stroke="#a99187" stroke-linecap="butt" stroke-width="1" target-height="55.22" target-width="28.119995" target-x="873.44" target-y="245.31"></path><path d="M 1164.19 309.25 L 1163.69 305.88 L 1163.67 302.67 L 1164.29 296.43 L 1164.57 293.39 L 1164.56 290.43 L 1163.88 283.42 L 1162.80 276.83 L 1161.33 270.63 L 1159.86 266.07 L 1158.10 261.83 L 1156.05 257.91 L 1153.71 254.28 L 1151.01 250.93 L 1147.91 247.93 L 1144.41 245.27 L 1140.45 242.95 L 1136.33 241.15 L 1131.64 239.74 L 1126.31 238.75 L 1120.25 238.22 L 1109.10 238.08 L 1098.24 238.53 L 1087.66 239.55 L 1077.34 241.13 L 1067.26 243.27 L 1057.40 245.95 L 1047.74 249.19 L 1038.27 252.98 L 1028.98 257.34 L 1019.85 262.28 L 1010.87 267.81 L 1002.02 273.94 L 993.31 280.72 L 993.07 281.03 L 993.00 281.43 L 993.12 281.81 L 993.41 282.09 L 1004.80 288.94 L 1015.69 296.16 L 1026.08 303.74 L 1035.99 311.70 L 1045.57 320.09 L 1054.77 328.84 L 1063.61 337.94 L 1072.08 347.40 L 1080.19 357.16 L 1088.02 367.26 L 1095.58 377.70 L 1102.87 388.49 L 1112.11 403.17 L 1121.00 418.42 L 1129.56 434.25" fill="none" group-id="1,2" id="路径" node-id="35" stroke="#a95c5c" stroke-linecap="butt" stroke-width="1" target-height="196.17" target-width="171.56995" target-x="993" target-y="238.08"></path><path d="M 1222.53 460.03 L 1221.99 461.82 L 1221.21 463.10 L 1220.22 463.98 L 1218.96 464.52 L 1217.38 464.72" fill="none" group-id="1,2" id="路径" node-id="36" stroke="#a95c5c" stroke-linecap="butt" stroke-width="1" target-height="4.6900024" target-width="5.1500244" target-x="1217.38" target-y="460.03"></path><path d="M 1217.38 464.72 L 1151.47 477.62 L 1150.39 478.02 L 1149.83 478.59 L 1149.63 479.36 L 1149.84 480.47 L 1160.72 510.97 L 1161.22 511.83 L 1161.92 512.32 L 1162.88 512.50 L 1212.50 513.03" fill="none" group-id="1,2" id="路径" node-id="37" stroke="#a99f9f" stroke-linecap="butt" stroke-width="1" target-height="48.310028" target-width="67.75" target-x="1149.63" target-y="464.72"></path><path d="M 1212.50 513.03 L 1215.62 513.28" fill="none" group-id="1,2" id="路径" node-id="38" stroke="#a95c5c" stroke-linecap="butt" stroke-width="1" target-height="0.25" target-width="3.119995" target-x="1212.5" target-y="513.03"></path><path d="M 1215.62 513.28 L 1216.41 514.59" fill="none" group-id="1,2" id="路径" node-id="39" stroke="#493738" stroke-linecap="butt" stroke-width="1" target-height="1.3099976" target-width="0.79003906" target-x="1215.62" target-y="513.28"></path><path d="M 1216.41 514.59 L 1213.28 515.62" fill="none" group-id="1,2" id="路径" node-id="40" stroke="#a95c5c" stroke-linecap="butt" stroke-width="1" target-height="1.0299683" target-width="3.130005" target-x="1213.28" target-y="514.59"></path><path d="M 1149.53 555.28 L 1140.69 559.98 L 1131.77 564.06 L 1122.78 567.53 L 1113.68 570.41 L 1104.47 572.72 L 1095.14 574.45 L 1085.65 575.60 L 1076.00 576.18 L 1065.68 576.31 L 1055.47 576.03 L 1045.37 575.34 L 1035.32 574.18 L 1025.55 572.53 L 1016.04 570.39 L 1008.99 568.40 L 1002.17 566.09 L 995.58 563.46 L 989.20 560.50 L 983.01 557.16 L 977.09 553.45 L 971.45 549.34 L 966.06 544.84 L 961.04 539.99 L 956.33 534.68 L 951.93 528.88 L 947.83 522.57 L 944.25 516.06 L 941.03 508.96 L 938.17 501.24 L 935.69 492.84 L 930.06 469.96 L 926.06 451.72 L 923.41 437.43 L 921.84 426.47 L 920.91 420.19 L 919.56 413.83 L 917.76 407.37 L 915.59 401.02 L 913.04 394.81 L 910.10 388.71 L 906.79 382.82 L 903.16 377.26 L 899.21 372.04 L 894.87 367.13 L 890.29 362.76 L 885.43 358.89 L 881.55 356.31 L 877.55 354.11 L 873.42 352.28 L 869.13 350.81 L 864.75 349.76 L 860.23 349.16 L 855.54 349.02 L 850.66 349.34 L 845.92 350.14 L 840.98 351.49 L 835.81 353.43 L 830.38 356.03 L 826.39 358.49 L 822.62 361.43 L 819.04 364.88 L 815.77 368.63 L 812.69 372.73 L 809.81 377.17 L 805.96 384.14 L 802.57 391.46 L 799.66 398.94 L 797.23 406.28 L 795.21 413.57 L 793.69 420.18 L 791.30 430.50 L 788.52 440.48 L 785.36 450.15 L 781.82 459.52 L 777.90 468.60 L 773.51 477.57 L 768.79 486.16 L 763.74 494.38 L 758.36 502.24 L 752.64 509.76 L 746.51 517.02 L 740.08 523.85 L 733.37 530.26 L 726.36 536.27 L 719.05 541.88 L 711.42 547.08 L 703.54 551.80 L 695.40 556.06 L 686.97 559.86 L 678.24 563.20 L 669.40 565.99 L 660.30 568.27 L 650.94 570.02 L 641.30 571.25 L 631.34 571.93 L 621.53 572.03 L 611.46 571.54 L 601.11 570.44 L 590.45 568.70 L 579.47 566.31 L 574.67 564.83 L 569.35 562.62 L 563.44 559.56 L 555.76 555.38 L 547.88 551.43" fill="none" group-id="1,2" id="路径" node-id="41" stroke="#a99187" stroke-linecap="butt" stroke-width="1" target-height="227.29001" target-width="601.65" target-x="547.88" target-y="349.02"></path><path d="M 555.59 445.97 L 561.66 432.64 L 567.92 419.79 L 574.35 407.42 L 580.96 395.50 L 587.99 383.73 L 595.35 372.38 L 603.04 361.43 L 611.07 350.86 L 619.53 340.65 L 628.49 330.77 L 637.97 321.21 L 647.98 311.98 L 656.21 305.00 L 664.89 298.19 L 674.04 291.55 L 683.66 285.08 L 693.78 278.78 L 694.03 278.38 L 693.81 277.97 L 684.50 271.72 L 675.08 266.07 L 665.53 260.99 L 655.84 256.48 L 646.02 252.52 L 636.03 249.10 L 625.88 246.22 L 615.53 243.87 L 604.99 242.06 L 594.23 240.78 L 583.24 240.05 L 572.00 239.87 L 564.89 240.24 L 558.68 241.11 L 553.26 242.40 L 548.54 244.09 L 543.92 246.35 L 539.87 248.96 L 536.34 251.90 L 533.29 255.19 L 530.61 258.83 L 528.28 262.75 L 526.30 267.00 L 524.66 271.58 L 523.01 277.85 L 521.81 284.53 L 521.07 291.67 L 520.73 298.85 L 520.68 306.25 L 520.94 313.87" fill="none" group-id="1,2" id="路径" node-id="42" stroke="#a95c5c" stroke-linecap="butt" stroke-width="1" target-height="206.1" target-width="173.35004" target-x="520.68" target-y="239.87"></path><path d="M 1216.41 514.59 L 1219.12 514.86 L 1221.81 514.59 L 1223.07 514.18 L 1223.08 513.88 L 1221.88 513.37 L 1219.85 512.99 L 1217.77 512.95 L 1215.62 513.28" fill="none" group-id="1,2" id="路径" node-id="43" stroke="#9f5555" stroke-linecap="butt" stroke-width="1" target-height="1.9099731" target-width="7.459961" target-x="1215.62" target-y="512.95"></path><path d="M 1212.50 513.03 L 1211.64 505.97 L 1211.30 499.00 L 1211.48 492.09 L 1212.17 485.23 L 1213.38 478.39 L 1215.11 471.55 L 1217.38 464.72" fill="none" group-id="1,2" id="路径" node-id="44" stroke="#ffbdbc" stroke-linecap="butt" stroke-width="1" target-height="48.310028" target-width="6.079956" target-x="1211.3" target-y="464.72"></path><path d="M 1125.28 591.00 L 1115.55 599.89 L 1105.47 608.31 L 1095.05 616.26 L 1084.27 623.75 L 1073.12 630.79 L 1061.59 637.37" fill="none" group-id="1,2" id="路径" node-id="45" stroke="#ffae86" stroke-linecap="butt" stroke-width="1" target-height="46.369995" target-width="63.690063" target-x="1061.59" target-y="591"></path><path d="M 1061.59 637.37 L 1048.08 643.23 L 1034.41 648.62 L 1020.56 653.53 L 1006.53 657.98 L 992.31 661.96 L 977.98 665.49 L 963.56 668.60 L 949.02 671.30 L 934.36 673.60 L 919.59 675.47 L 901.08 677.28 L 882.52 678.52 L 863.91 679.20 L 845.25 679.32 L 826.57 678.93 L 807.99 678.06 L 789.50 676.71 L 771.09 674.90 L 757.08 673.09 L 743.28 670.76 L 729.68 667.91 L 716.27 664.55 L 703.04 660.68 L 689.97 656.29 L 677.06 651.38 L 664.30 645.94 L 651.68 639.97 L 639.19 633.47" fill="none" group-id="1,2" id="路径" node-id="46" stroke="#9f8a80" stroke-linecap="butt" stroke-width="1" target-height="45.850037" target-width="422.39996" target-x="639.19" target-y="633.47"></path><path d="M 639.19 633.47 L 626.96 625.98 L 615.09 618.09 L 603.57 609.79 L 592.39 601.08 L 581.55 591.95 L 571.04 582.39 L 560.84 572.40 L 550.97 561.97" fill="none" group-id="1,2" id="路径" node-id="47" stroke="#ffae86" stroke-linecap="butt" stroke-width="1" target-height="71.5" target-width="88.22003" target-x="550.97" target-y="561.97"></path><path d="M 1161.59 695.97 L 1102.75 698.43" fill="none" group-id="1,2" id="路径" node-id="48" stroke="#fe6f37" stroke-linecap="butt" stroke-width="1" target-height="2.460022" target-width="58.839966" target-x="1102.75" target-y="695.97"></path><path d="M 1102.75 698.43 L 1093.87 684.16 L 1084.49 670.14 L 1074.59 656.37 L 1064.19 642.84" fill="none" group-id="1,2" id="路径" node-id="49" stroke="#a95b3e" stroke-linecap="butt" stroke-width="1" target-height="55.589966" target-width="38.56006" target-x="1064.19" target-y="642.84"></path><path d="M 1064.19 642.84 L 1061.59 637.37" fill="none" group-id="1,2" id="路径" node-id="50" stroke="#9f5437" stroke-linecap="butt" stroke-width="1" target-height="5.4700317" target-width="2.5999756" target-x="1061.59" target-y="637.37"></path><path d="M 639.19 633.47 L 630.34 643.62" fill="none" group-id="1,2" id="路径" node-id="51" stroke="#9f5437" stroke-linecap="butt" stroke-width="1" target-height="10.150024" target-width="8.849976" target-x="630.34" target-y="633.47"></path><path d="M 630.34 643.62 L 619.32 654.01 L 608.77 664.72 L 598.69 675.75 L 589.07 687.11 L 579.91 698.81" fill="none" group-id="1,2" id="路径" node-id="52" stroke="#a95b3e" stroke-linecap="butt" stroke-width="1" target-height="55.190002" target-width="50.430054" target-x="579.91" target-y="643.62"></path><path d="M 579.91 698.81 L 559.52 697.47 L 539.15 696.54 L 518.79 695.99 L 498.44 695.84" fill="none" group-id="1,2" id="路径" node-id="53" stroke="#fe6f37" stroke-linecap="butt" stroke-width="1" target-height="2.9699707" target-width="81.46997" target-x="498.44" target-y="695.84"></path><path d="M 1064.19 642.84 L 1054.03 652.16 L 1043.69 661.02 L 1033.16 669.43 L 1022.45 677.40 L 1011.55 684.93 L 1000.32 692.11 L 988.97 698.79 L 977.49 704.99 L 965.86 710.70 L 954.09 715.94 L 942.08 720.73 L 929.99 725.00 L 917.80 728.74 L 905.52 731.97 L 893.13 734.68 L 880.62 736.86 L 868.07 738.47 L 855.45 739.53 L 842.76 740.02 L 829.98 739.95 L 817.27 739.30 L 804.53 738.04 L 791.74 736.17 L 778.89 733.69 L 765.96 730.57 L 753.33 726.89 L 740.67 722.55 L 727.98 717.52 L 715.22 711.79 L 702.41 705.34 L 692.49 699.70 L 682.86 693.50 L 673.49 686.73 L 664.38 679.37 L 655.51 671.40 L 646.88 662.80 L 638.50 653.55 L 630.34 643.62" fill="none" group-id="1,2" id="路径" node-id="54" stroke="#493738" stroke-linecap="butt" stroke-width="1" target-height="97.17999" target-width="433.8499" target-x="630.34" target-y="642.84"></path><path d="M 1163.19 698.22 L 1306.38 917.06" fill="none" group-id="1,2" id="路径" node-id="55" stroke="#fe6f37" stroke-linecap="butt" stroke-width="1" target-height="218.84003" target-width="143.19006" target-x="1163.19" target-y="698.22"></path><path d="M 1306.38 917.06 L 1305.84 917.78 L 1305.21 918.46 L 1304.31 918.68 L 1164.06 918.50" fill="none" group-id="1,2" id="路径" node-id="56" stroke="#fc7841" stroke-linecap="butt" stroke-width="1" target-height="1.6199951" target-width="142.31995" target-x="1164.06" target-y="917.06"></path><path d="M 1102.75 698.43 L 1110.87 713.24 L 1118.39 728.15 L 1125.32 743.18 L 1131.67 758.33 L 1137.44 773.61 L 1142.64 789.02 L 1147.28 804.59 L 1151.36 820.31 L 1154.88 836.19 L 1157.84 852.26 L 1160.24 868.51 L 1162.08 884.96 L 1163.36 901.62 L 1164.06 918.50" fill="none" group-id="1,2" id="路径" node-id="57" stroke="#a75238" stroke-linecap="butt" stroke-width="1" target-height="220.07" target-width="61.31006" target-x="1102.75" target-y="698.43"></path><path d="M 1164.06 918.50 L 1120.44 919.40" fill="none" group-id="1,2" id="路径" node-id="58" stroke="#a76448" stroke-linecap="butt" stroke-width="1" target-height="0.9000244" target-width="43.620117" target-x="1120.44" target-y="918.5"></path><path d="M 1120.44 919.40 L 1121.08 910.39 L 1121.26 901.57 L 1120.98 892.92 L 1120.25 884.44 L 1119.07 876.12 L 1117.41 867.80 L 1115.31 859.74 L 1112.75 851.94 L 1109.75 844.37 L 1106.30 837.02 L 1102.38 829.89 L 1098.01 823.08 L 1093.19 816.58 L 1087.90 810.37 L 1082.12 804.44 L 1076.02 798.97 L 1069.43 793.87 L 1062.34 789.13 L 1054.72 784.74 L 1046.53 780.72 L 1040.09 778.04 L 1033.88 775.93 L 1027.87 774.35 L 1022.04 773.27 L 1016.09 772.68 L 1010.23 772.64 L 1004.44 773.14 L 998.69 774.20 L 993.11 775.78 L 987.45 777.97 L 981.71 780.81 L 975.84 784.34 L 969.01 789.15 L 962.68 794.16 L 956.82 799.39 L 951.40 804.83 L 946.42 810.49 L 941.75 816.50 L 937.50 822.69 L 933.67 829.07 L 930.24 835.65 L 927.22 842.43 L 924.60 849.38 L 922.37 856.49 L 920.53 863.77 L 919.08 871.23 L 918.02 878.90 L 917.27 888.47 L 917.11 898.27 L 917.55 908.31 L 918.62 918.62" fill="none" group-id="1,2" id="路径" node-id="59" stroke="#a99187" stroke-linecap="butt" stroke-width="1" target-height="146.76001" target-width="204.15002" target-x="917.11" target-y="772.64"></path><path d="M 918.62 918.62 L 760.91 919.53" fill="none" group-id="1,2" id="路径" node-id="60" stroke="#a76448" stroke-linecap="butt" stroke-width="1" target-height="0.9100342" target-width="157.71002" target-x="760.91" target-y="918.62"></path><path d="M 760.91 919.53 L 761.35 910.23 L 761.32 901.22 L 760.85 892.47 L 759.94 883.98 L 758.60 875.72 L 756.77 867.44 L 754.49 859.48 L 751.76 851.79 L 748.59 844.37 L 744.97 837.21 L 740.88 830.29 L 736.33 823.68 L 731.30 817.35 L 725.78 811.29 L 719.76 805.51 L 713.45 800.22 L 706.62 795.23 L 699.24 790.55 L 691.29 786.18 L 682.72 782.12 L 675.92 779.48 L 669.33 777.53 L 662.92 776.24 L 656.66 775.57 L 650.51 775.50 L 644.46 776.02 L 638.46 777.13 L 632.50 778.84 L 626.55 781.17 L 620.59 784.16 L 614.59 787.84 L 607.76 792.73 L 601.50 797.76 L 595.77 802.93 L 590.55 808.25 L 585.82 813.71 L 581.36 819.53 L 577.33 825.52 L 573.71 831.67 L 570.49 837.99 L 567.66 844.49 L 564.65 852.82 L 562.16 861.44 L 560.19 870.38 L 558.74 879.64 L 557.82 888.91 L 557.32 898.48 L 557.28 908.38 L 557.69 918.62" fill="none" group-id="1,2" id="路径" node-id="61" stroke="#a99187" stroke-linecap="butt" stroke-width="1" target-height="144.03003" target-width="204.06995" target-x="557.28" target-y="775.5"></path><path d="M 557.69 918.62 L 546.55 919.39 L 535.45 919.70 L 524.36 919.54 L 513.29 918.92 L 502.22 917.84" fill="none" group-id="1,2" id="路径" node-id="62" stroke="#a76448" stroke-linecap="butt" stroke-width="1" target-height="1.8599854" target-width="55.47" target-x="502.22" target-y="917.84"></path><path d="M 502.22 917.84 L 503.42 901.65 L 505.19 885.75 L 507.54 870.10 L 510.44 854.71 L 513.91 839.56 L 517.93 824.64 L 522.51 809.93 L 527.66 795.42 L 533.37 781.11 L 539.65 766.99 L 546.50 753.03 L 553.95 739.25 L 561.99 725.62 L 570.64 712.14 L 579.91 698.81" fill="none" group-id="1,2" id="路径" node-id="63" stroke="#a75238" stroke-linecap="butt" stroke-width="1" target-height="219.03003" target-width="77.68997" target-x="502.22" target-y="698.81"></path><path d="M 502.22 917.84 L 464.77 918.50 L 427.10 918.78 L 389.21 918.66 L 351.09 918.15" fill="none" group-id="1,2" id="路径" node-id="64" stroke="#fc7841" stroke-linecap="butt" stroke-width="1" target-height="0.94000244" target-width="151.13" target-x="351.09" target-y="917.84"></path><path d="M 1310.16 920.31 L 1306.38 917.06" fill="none" group-id="1,2" id="路径" node-id="65" stroke="#fe8147" stroke-linecap="butt" stroke-width="1" target-height="3.25" target-width="3.7800293" target-x="1306.38" target-y="917.06"></path><path d="M 1308.56 1098.59 L 1307.88 1097.67 L 1307.14 1097.12 L 1306.31 1096.86 L 1304.92 1096.82 L 1303.36 1097.06 L 1300.25 1097.50 L 824.78 1097.49 L 349.28 1097.84" fill="none" group-id="1,2" id="路径" node-id="66" stroke="#fe8147" stroke-linecap="butt" stroke-width="1" target-height="1.7700195" target-width="959.28" target-x="349.28" target-y="1096.82"></path><path d="M 632.56 1020.75 L 634.02 1022.09 L 635.56 1022.80 L 637.25 1022.96 L 639.19 1022.53" fill="none" group-id="1,2" id="路径" node-id="67" stroke="#a76448" stroke-linecap="butt" stroke-width="1" target-height="2.210022" target-width="6.630005" target-x="632.56" target-y="1020.75"></path><path d="M 692.31 1016.28 L 694.11 1016.19 L 695.51 1015.65 L 696.64 1014.67 L 697.53 1013.15" fill="none" group-id="1,2" id="路径" node-id="68" stroke="#a76448" stroke-linecap="butt" stroke-width="1" target-height="3.130005" target-width="5.2200317" target-x="692.31" target-y="1013.15"></path><path d="M 978.00 1013.93 L 979.13 1015.18 L 980.40 1015.94 L 981.86 1016.27 L 983.59 1016.15" fill="none" group-id="1,2" id="路径" node-id="69" stroke="#a76448" stroke-linecap="butt" stroke-width="1" target-height="2.3400269" target-width="5.590027" target-x="978" target-y="1013.93"></path><path d="M 1038.28 1018.50 L 1043.75 1016.93" fill="none" group-id="1,2" id="路径" node-id="70" stroke="#a76448" stroke-linecap="butt" stroke-width="1" target-height="1.5700073" target-width="5.4699707" target-x="1038.28" target-y="1016.93"></path><path d="M 760.91 919.53 L 758.99 929.59 L 756.60 939.17 L 753.76 948.30 L 750.47 957.00 L 747.40 963.82 L 743.95 970.37 L 740.13 976.64 L 735.92 982.65 L 731.31 988.42 L 726.38 993.82 L 720.96 998.97 L 715.03 1003.90 L 708.55 1008.59 L 701.50 1013.06 L 699.88 1013.72 L 698.61 1013.71 L 697.53 1013.15" fill="none" group-id="1,2" id="路径" node-id="71" stroke="#feb790" stroke-linecap="butt" stroke-width="1" target-height="94.18994" target-width="63.379944" target-x="697.53" target-y="919.53"></path><path d="M 697.53 1013.15 L 697.27 1006.94 L 696.54 995.64 L 695.33 981.11 L 693.69 965.25 L 692.69 957.31 L 691.61 949.92 L 690.38 942.85 L 689.13 937.01 L 687.64 931.76 L 686.25 928.40 L 685.33 926.95 L 684.51 926.18 L 683.76 925.89 L 683.00 925.97 L 682.04 926.55 L 681.38 927.40 L 681.05 928.43 L 681.09 929.56 L 684.23 943.88 L 686.86 958.24 L 688.98 972.65 L 690.59 987.13 L 691.71 1001.66 L 692.31 1016.28" fill="none" group-id="1,2" id="路径" node-id="72" stroke="#a99187" stroke-linecap="butt" stroke-width="1" target-height="90.390015" target-width="16.480042" target-x="681.05" target-y="925.89"></path><path d="M 692.31 1016.28 L 685.85 1019.08 L 679.37 1021.29 L 672.87 1022.91 L 666.32 1023.96 L 659.71 1024.46 L 652.99 1024.39 L 646.16 1023.75 L 639.19 1022.53" fill="none" group-id="1,2" id="路径" node-id="73" stroke="#feb790" stroke-linecap="butt" stroke-width="1" target-height="8.179932" target-width="53.119995" target-x="639.19" target-y="1016.28"></path><path d="M 639.19 1022.53 L 635.26 1009.53 L 631.81 996.46 L 628.84 983.29 L 626.33 970.04 L 624.30 956.68 L 622.74 943.21 L 621.66 929.62 L 621.46 928.77 L 621.01 928.06 L 620.37 927.54 L 619.56 927.25 L 618.65 927.31 L 617.90 927.75 L 617.25 928.68 L 616.72 930.32 L 616.38 932.59 L 616.24 935.67 L 616.37 939.75 L 616.92 946.02 L 617.91 953.60 L 619.18 961.46 L 620.73 969.91 L 624.22 986.73 L 627.76 1002.11 L 630.74 1014.10 L 632.56 1020.75" fill="none" group-id="1,2" id="路径" node-id="74" stroke="#a99187" stroke-linecap="butt" stroke-width="1" target-height="95.28003" target-width="22.950012" target-x="616.24" target-y="927.25"></path><path d="M 632.56 1020.75 L 625.34 1019.18 L 618.62 1017.11 L 612.36 1014.57 L 606.51 1011.55 L 601.05 1008.05 L 595.95 1004.07 L 591.19 999.58 L 586.76 994.56 L 582.66 988.97 L 577.80 981.24 L 573.45 973.25 L 569.59 964.97 L 566.22 956.39 L 563.34 947.49 L 560.95 938.24 L 559.06 928.63 L 557.69 918.62" fill="none" group-id="1,2" id="路径" node-id="75" stroke="#feb790" stroke-linecap="butt" stroke-width="1" target-height="102.130005" target-width="74.869995" target-x="557.69" target-y="918.62"></path><path d="M 1120.44 919.40 L 1118.79 927.96 L 1116.76 936.20 L 1114.35 944.14 L 1111.58 951.79 L 1108.34 959.29 L 1104.70 966.43 L 1100.65 973.21 L 1096.19 979.66 L 1091.28 985.78 L 1085.92 991.50 L 1080.08 996.83 L 1073.75 1001.80 L 1068.48 1005.37 L 1062.87 1008.67 L 1056.89 1011.70 L 1050.52 1014.46 L 1043.75 1016.93" fill="none" group-id="1,2" id="路径" node-id="76" stroke="#feb790" stroke-linecap="butt" stroke-width="1" target-height="97.52997" target-width="76.68994" target-x="1043.75" target-y="919.4"></path><path d="M 1043.75 1016.93 L 1044.90 1010.04 L 1046.48 998.71 L 1048.16 984.68 L 1049.58 969.70 L 1050.09 962.29 L 1050.39 955.50 L 1050.46 949.02 L 1050.25 943.82 L 1049.88 940.47 L 1049.38 938.07 L 1048.80 936.40 L 1048.13 935.33 L 1047.43 934.80 L 1046.64 934.68 L 1045.69 934.97 L 1045.01 935.47 L 1044.62 936.12 L 1044.50 936.97 L 1044.48 953.38 L 1043.85 969.73 L 1042.61 986.02 L 1040.75 1002.27 L 1038.28 1018.50" fill="none" group-id="1,2" id="路径" node-id="77" stroke="#a99187" stroke-linecap="butt" stroke-width="1" target-height="83.82001" target-width="12.179932" target-x="1038.28" target-y="934.68"></path><path d="M 1038.28 1018.50 L 1031.25 1020.19 L 1024.32 1021.29 L 1017.46 1021.83 L 1010.66 1021.82 L 1003.90 1021.25 L 997.14 1020.12 L 990.38 1018.43 L 983.59 1016.15" fill="none" group-id="1,2" id="路径" node-id="78" stroke="#feb790" stroke-linecap="butt" stroke-width="1" target-height="5.6799927" target-width="54.690002" target-x="983.59" target-y="1016.15"></path><path d="M 983.59 1016.15 L 982.44 1001.22 L 981.90 986.31 L 981.98 971.42 L 982.69 956.52 L 984.02 941.62 L 985.97 926.68 L 985.96 925.54 L 985.62 924.53 L 984.94 923.62 L 983.45 922.51 L 982.55 922.34 L 981.93 922.74 L 981.47 923.93 L 979.23 936.77 L 977.58 949.60 L 976.51 962.42 L 976.02 975.26 L 976.10 988.11 L 976.76 1001.00 L 978.00 1013.93" fill="none" group-id="1,2" id="路径" node-id="79" stroke="#a99187" stroke-linecap="butt" stroke-width="1" target-height="93.81" target-width="9.949951" target-x="976.02" target-y="922.34"></path><path d="M 978.00 1013.93 L 972.30 1011.19 L 966.98 1008.17 L 962.01 1004.88 L 957.38 1001.31 L 953.07 997.47 L 948.01 992.25 L 943.39 986.72 L 939.19 980.86 L 935.42 974.66 L 932.06 968.21 L 929.08 961.57 L 926.47 954.72 L 924.22 947.65 L 921.78 938.07 L 919.91 928.40 L 918.62 918.62" fill="none" group-id="1,2" id="路径" node-id="80" stroke="#feb790" stroke-linecap="butt" stroke-width="1" target-height="95.31" target-width="59.380005" target-x="918.62" target-y="918.62"></path><path d="M 497.66 696.09 L 351.09 918.15" fill="none" group-id="1,2" id="路径" node-id="81" stroke="#fe6f37" stroke-linecap="butt" stroke-width="1" target-height="222.06" target-width="146.57" target-x="351.09" target-y="696.09"></path><path d="M 351.09 918.15 L 349.99 919.55 L 348.44 920.84" fill="none" group-id="1,2" id="路径" node-id="82" stroke="#fe8147" stroke-linecap="butt" stroke-width="1" target-height="2.6900024" target-width="2.649994" target-x="348.44" target-y="918.15"></path><path d="M 329.53 546.53 L 321.17 544.79 L 313.12 543.57 L 305.36 542.84 L 299.49 542.66 L 293.83 542.87 L 288.35 543.46 L 283.05 544.42 L 277.84 545.83 L 272.81 547.73 L 267.92 550.14 L 263.17 553.06 L 258.80 556.40 L 254.53 560.38 L 250.37 565.08 L 246.31 570.56 L 243.70 574.96 L 241.68 579.35 L 240.22 583.74 L 239.30 588.15 L 238.83 592.67 L 238.81 597.16 L 239.22 601.63 L 240.07 606.11 L 241.79 611.94 L 244.11 617.61 L 247.05 623.15 L 250.50 628.41 L 254.36 633.35 L 258.67 637.97 L 263.34 642.23 L 268.23 645.99 L 273.34 649.28 L 280.39 653.08 L 287.76 656.55 L 295.47 659.68 L 303.53 662.47 L 314.43 665.59 L 325.68 668.16 L 337.33 670.16 L 349.06 671.60 L 360.90 672.53 L 372.86 672.95 L 384.83 672.88 L 396.62 672.36 L 408.24 671.40 L 419.83 670.00 L 430.94 668.22 L 441.59 666.09 L 442.54 665.70 L 443.23 665.07 L 443.69 664.15 L 446.47 654.36 L 448.95 644.18 L 451.12 633.59 L 452.88 622.94 L 454.24 612.09 L 455.18 601.05 L 455.67 589.98 L 455.66 578.91 L 455.16 567.84 L 454.12 556.81 L 452.51 545.97 L 450.33 535.29 L 448.28 527.36 L 445.87 519.63 L 443.10 512.09 L 439.96 504.71 L 436.42 497.52 L 432.48 490.58 L 428.12 483.89 L 423.34 477.43 L 419.90 473.52 L 416.10 469.97 L 411.91 466.76 L 407.43 463.97 L 402.75 461.66 L 397.86 459.84 L 392.80 458.55 L 387.69 457.88 L 382.51 457.80 L 378.64 458.17 L 374.81 458.94 L 371.00 460.13 L 367.19 461.75 L 361.48 464.94 L 356.35 468.47 L 351.76 472.36 L 347.66 476.60 L 343.95 481.24 L 340.70 486.13 L 337.90 491.29 L 335.53 496.73 L 333.60 502.35 L 332.07 508.12 L 330.95 514.06 L 330.23 520.18 L 329.92 526.32 L 329.98 532.49 L 330.41 538.70 L 331.22 544.97 L 331.15 546.08 L 330.65 546.55 L 329.53 546.53" fill="none" group-id="1,2" id="路径" node-id="83" stroke="#ffbdbc" stroke-linecap="butt" stroke-width="1" target-height="215.15002" target-width="216.86002" target-x="238.81" target-y="457.8"></path><path d="M 731.34 441.47 L 731.13 437.43 L 730.54 433.57 L 729.59 429.87 L 728.29 426.32 L 726.02 421.81 L 723.24 417.69 L 719.95 413.95 L 716.21 410.66 L 712.10 407.89 L 707.58 405.62 L 704.03 404.31 L 700.33 403.36 L 696.48 402.77 L 692.44 402.56 L 688.40 402.77 L 684.54 403.36 L 680.85 404.31 L 677.29 405.62 L 672.78 407.89 L 668.67 410.66 L 664.93 413.95 L 661.63 417.69 L 658.86 421.81 L 656.59 426.32 L 655.28 429.87 L 654.33 433.57 L 653.75 437.43 L 653.53 441.47 L 653.75 445.50 L 654.33 449.36 L 655.28 453.06 L 656.59 456.61 L 658.86 461.13 L 661.63 465.24 L 664.93 468.98 L 668.67 472.27 L 672.78 475.04 L 677.29 477.31 L 680.85 478.62 L 684.54 479.57 L 688.40 480.16 L 692.44 480.37 L 696.48 480.16 L 700.33 479.57 L 704.03 478.62 L 707.58 477.31 L 712.10 475.04 L 716.21 472.27 L 719.95 468.98 L 723.24 465.24 L 726.01 461.13 L 728.29 456.61 L 729.59 453.06 L 730.54 449.36 L 731.13 445.50 L 731.34 441.47" fill="none" group-id="1,2" id="路径" node-id="84" stroke="#493738" stroke-linecap="butt" stroke-width="1" target-height="77.81" target-width="77.81" target-x="653.53" target-y="402.56"></path><path d="M 1044.03 441.53 L 1043.83 437.65 L 1043.27 433.89 L 1042.35 430.22 L 1041.07 426.64 L 1039.44 423.20 L 1037.50 419.96 L 1035.24 416.90 L 1032.64 414.02 L 1029.75 411.41 L 1026.70 409.15 L 1023.45 407.21 L 1020.01 405.58 L 1016.43 404.30 L 1012.77 403.38 L 1009.00 402.82 L 1005.12 402.62 L 1001.25 402.82 L 997.48 403.38 L 993.82 404.30 L 990.24 405.58 L 986.80 407.21 L 983.55 409.15 L 980.50 411.41 L 977.61 414.02 L 975.01 416.90 L 972.75 419.96 L 970.81 423.20 L 969.18 426.64 L 967.90 430.22 L 966.98 433.89 L 966.42 437.65 L 966.22 441.53 L 966.43 445.57 L 967.02 449.42 L 967.97 453.12 L 969.28 456.67 L 971.55 461.19 L 974.32 465.30 L 977.61 469.04 L 981.35 472.33 L 985.46 475.11 L 989.98 477.38 L 993.53 478.69 L 997.23 479.63 L 1001.09 480.22 L 1005.12 480.43 L 1009.16 480.22 L 1013.02 479.63 L 1016.72 478.69 L 1020.27 477.38 L 1024.79 475.11 L 1028.90 472.33 L 1032.64 469.04 L 1035.93 465.30 L 1038.70 461.19 L 1040.97 456.67 L 1042.28 453.12 L 1043.23 449.42 L 1043.82 445.57 L 1044.03 441.53" fill="none" group-id="1,2" id="路径" node-id="85" stroke="#493738" stroke-linecap="butt" stroke-width="1" target-height="77.81" target-width="77.81006" target-x="966.22" target-y="402.62"></path><path d="M 853.84 503.97 L 854.23 503.53 L 854.79 503.38 L 855.33 503.57 L 855.69 504.03 L 857.70 509.14 L 860.21 514.37 L 863.17 519.40 L 866.58 524.07 L 869.14 526.94 L 871.88 529.46 L 874.80 531.65 L 877.96 533.45 L 881.31 534.76 L 884.90 535.60 L 887.62 535.85 L 890.50 535.76 L 893.58 535.30 L 896.88 534.43 L 900.44 533.01 L 903.26 531.44 L 905.45 529.76 L 907.11 527.96 L 908.48 525.85 L 909.40 523.67 L 909.91 521.41 L 910.00 519.03 L 909.58 515.86 L 908.56 512.63 L 906.90 509.31 L 904.80 506.22 L 902.23 503.28 L 899.16 500.47 L 898.42 500.14 L 897.61 500.21 L 896.95 500.67 L 896.59 501.40 L 896.16 503.53 L 896.14 504.52 L 896.48 505.31 L 897.22 505.97 L 899.93 507.84 L 901.96 509.63 L 903.43 511.33 L 904.43 512.97 L 905.32 515.43 L 905.55 517.73 L 905.17 519.95 L 904.27 522.06 L 902.92 524.02 L 901.08 525.86 L 898.96 527.41 L 896.57 528.69 L 893.86 529.70 L 891.04 530.35 L 888.15 530.59 L 885.16 530.44 L 882.24 529.84 L 879.42 528.72 L 876.66 527.06 L 873.60 524.50 L 870.70 521.49 L 867.97 517.97 L 865.39 513.90 L 862.99 509.21 L 860.77 503.85 L 858.75 497.75 L 858.67 496.90 L 858.92 496.22 L 859.53 495.62 L 864.26 492.51 L 871.51 487.60 L 879.17 481.96 L 882.63 479.07 L 885.14 476.61 L 886.53 474.85 L 887.16 473.56 L 887.28 472.59 L 886.72 470.51 L 885.80 468.80 L 884.52 467.42 L 883.00 466.53 L 879.57 465.40 L 874.73 464.23 L 869.51 463.29 L 863.50 462.51 L 857.32 462.03 L 850.99 461.88 L 844.72 462.14 L 838.91 462.86 L 835.13 463.66 L 831.83 464.70 L 828.94 465.96 L 826.30 467.61 L 824.28 469.52 L 822.78 471.72 L 822.22 473.31 L 822.07 474.88 L 822.32 476.45 L 822.93 477.92 L 823.87 479.18 L 825.19 480.25 L 850.25 495.53 L 851.01 496.21 L 851.28 496.99 L 851.09 498.00 L 849.03 503.18 L 846.59 508.86 L 843.82 514.48 L 840.61 519.87 L 838.16 523.24 L 835.48 526.21 L 832.57 528.81 L 830.18 530.47 L 827.62 531.80 L 824.86 532.80 L 821.88 533.47 L 817.83 533.77 L 814.44 533.46 L 811.59 532.63 L 809.18 531.33 L 807.13 529.52 L 805.41 527.17 L 804.01 524.17 L 802.97 520.37 L 802.97 518.85 L 803.59 517.47 L 811.84 505.87 L 812.13 505.21 L 812.06 504.65 L 811.62 504.09 L 810.71 503.57 L 809.77 503.45 L 808.75 503.72 L 807.25 504.63 L 805.62 506.19 L 804.12 508.03 L 802.71 510.10 L 800.45 514.09 L 799.31 516.75 L 798.68 519.82 L 798.49 522.53 L 798.71 524.92 L 799.28 527.06 L 800.58 529.75 L 802.35 532.05 L 804.63 534.00 L 807.23 535.56 L 810.11 536.76 L 813.31 537.60 L 816.59 538.06 L 819.90 538.14 L 823.26 537.86 L 826.56 537.20 L 829.61 536.18 L 832.44 534.81 L 836.14 532.30 L 839.33 529.51 L 842.06 526.43 L 844.46 523.07 L 846.64 519.51 L 848.58 515.74 L 853.84 503.97" fill="none" group-id="1,2" id="路径" node-id="86" stroke="#a99187" stroke-linecap="butt" stroke-width="1" target-height="76.26001" target-width="111.51001" target-x="798.49" target-y="461.88"></path><path d="M 1078.09 706.07 L 1078.88 705.11 L 1079.31 703.63 L 1079.31 701.90 L 1078.87 699.64 L 1078.06 697.30 L 1076.85 694.73 L 1075.36 692.19 L 1073.55 689.63 L 1070.74 686.36 L 1068.00 683.83 L 1065.13 681.83 L 1062.72 680.73 L 1061.11 680.40 L 1059.85 680.50 L 1058.84 680.98 L 1058.05 681.95 L 1057.63 683.43 L 1057.63 685.16 L 1058.07 687.41 L 1058.88 689.75 L 1060.09 692.33 L 1061.58 694.87 L 1063.39 697.43 L 1066.19 700.69 L 1068.94 703.23 L 1071.81 705.23 L 1074.22 706.33 L 1075.83 706.66 L 1077.09 706.55 L 1078.09 706.07" fill="none" group-id="1,2" id="路径" node-id="87" stroke="#a99f9f" stroke-linecap="butt" stroke-width="1" target-height="26.259949" target-width="21.680054" target-x="1057.63" target-y="680.4"></path><path d="M 1081.97 719.93 L 1081.77 721.15 L 1081.84 722.94 L 1082.30 725.49 L 1083.36 729.35 L 1085.03 734.06 L 1087.02 738.88 L 1089.36 743.87 L 1091.91 748.73 L 1094.49 753.12 L 1097.22 757.12 L 1099.63 760.03 L 1101.40 761.66 L 1102.81 762.51 L 1103.97 762.81 L 1105.81 762.57 L 1107.04 761.86 L 1107.83 760.71 L 1108.22 759.25 L 1108.32 757.36 L 1108.03 754.91 L 1107.12 751.19 L 1105.60 746.78 L 1103.74 742.30 L 1101.58 737.68 L 1096.99 728.98 L 1092.86 722.05 L 1090.22 718.25 L 1088.46 716.54 L 1087.06 715.69 L 1085.90 715.43 L 1084.88 715.64 L 1083.91 716.33 L 1082.94 717.66 L 1081.97 719.93" fill="none" group-id="1,2" id="路径" node-id="88" stroke="#a99f9f" stroke-linecap="butt" stroke-width="1" target-height="47.380005" target-width="26.549927" target-x="1081.77" target-y="715.43"></path><path d="M 1065.62 1355.12 L 1065.48 1354.41 L 1065.09 1353.84 L 1064.52 1353.45 L 1063.81 1353.31 L 930.00 1353.31 L 929.29 1353.45 L 928.72 1353.84 L 928.33 1354.41 L 928.19 1355.12 L 928.19 1489.12 L 928.33 1489.83 L 928.72 1490.40 L 929.29 1490.79 L 930.00 1490.93 L 1063.81 1490.93 L 1064.52 1490.79 L 1065.09 1490.40 L 1065.48 1489.83 L 1065.62 1489.12 L 1065.62 1355.12" fill="none" group-id="1,2" hidden="true" id="路径" node-id="89" stroke="#a95b3e" stroke-linecap="butt" stroke-width="1" target-height="137.62" target-width="137.43" target-x="928.19" target-y="1353.31" visibility="hidden"></path><path d="M 1229.69 1356.50 L 1229.41 1355.12 L 1228.66 1354.02 L 1227.56 1353.28 L 1226.19 1353.00 L 1094.94 1353.00 L 1093.57 1353.28 L 1092.46 1354.02 L 1091.72 1355.12 L 1091.44 1356.50 L 1091.44 1487.75 L 1091.72 1489.12 L 1092.46 1490.22 L 1093.57 1490.97 L 1094.94 1491.25 L 1226.19 1491.25 L 1227.56 1490.97 L 1228.66 1490.22 L 1229.41 1489.12 L 1229.69 1487.75 L 1229.69 1356.50" fill="none" group-id="1,2" hidden="true" id="路径" node-id="90" stroke="#a95b3e" stroke-linecap="butt" stroke-width="1" target-height="138.25" target-width="138.25" target-x="1091.44" target-y="1353" visibility="hidden"></path><path d="M 996.50 1419.40 L 997.22 1419.71 L 997.94 1419.40 L 1058.88 1357.84 L 1059.16 1357.32 L 1059.10 1356.74 L 1058.72 1356.28 L 1058.16 1356.12 L 935.53 1356.12 L 934.98 1356.30 L 934.61 1356.75 L 934.56 1357.33 L 934.84 1357.84 L 996.50 1419.40" fill="none" group-id="1,2" hidden="true" id="路径" node-id="91" stroke="#a95b3e" stroke-linecap="butt" stroke-width="1" target-height="63.589966" target-width="124.60004" target-x="934.56" target-y="1356.12" visibility="hidden"></path><path d="M 933.88 1360.65 L 933.09 1360.22 L 932.19 1360.31 L 931.50 1360.88 L 931.25 1361.75 L 931.25 1482.56 L 931.50 1483.42 L 932.19 1483.99 L 933.09 1484.08 L 933.88 1483.65 L 994.12 1423.25 L 994.46 1422.75 L 994.58 1422.15 L 994.47 1421.56 L 994.12 1421.06 L 933.88 1360.65" fill="none" group-id="1,2" hidden="true" id="路径" node-id="92" stroke="#a95b3e" stroke-linecap="butt" stroke-width="1" target-height="123.859985" target-width="63.330017" target-x="931.25" target-y="1360.22" visibility="hidden"></path><path d="M 1060.75 1483.68 L 1061.28 1483.96 L 1061.88 1483.89 L 1062.33 1483.51 L 1062.50 1482.93 L 1062.50 1361.37 L 1062.33 1360.80 L 1061.88 1360.41 L 1061.28 1360.35 L 1060.75 1360.62 L 999.94 1421.43 L 999.65 1422.15 L 999.94 1422.87 L 1060.75 1483.68" fill="none" group-id="1,2" hidden="true" id="路径" node-id="93" stroke="#a95b3e" stroke-linecap="butt" stroke-width="1" target-height="123.609985" target-width="62.849976" target-x="999.65" target-y="1360.35" visibility="hidden"></path><path d="M 935.16 1486.40 L 934.87 1486.95 L 934.93 1487.56 L 935.32 1488.04 L 935.91 1488.22 L 1057.69 1488.00 L 1058.28 1487.82 L 1058.67 1487.34 L 1058.73 1486.73 L 1058.44 1486.18 L 997.44 1424.87 L 996.69 1424.56 L 995.94 1424.87 L 935.16 1486.40" fill="none" group-id="1,2" hidden="true" id="路径" node-id="94" stroke="#a95b3e" stroke-linecap="butt" stroke-width="1" target-height="63.659912" target-width="123.859985" target-x="934.87" target-y="1424.56" visibility="hidden"></path><path d="M 1131.59 1356.93 L 1122.49 1356.52 L 1111.40 1356.02 L 1105.69 1356.07 L 1100.38 1356.47 L 1099.29 1356.76 L 1098.91 1357.16 L 1098.95 1357.71 L 1099.62 1358.62 L 1159.59 1418.43 L 1160.53 1419.04 L 1161.39 1419.04 L 1162.31 1418.43 L 1221.72 1359.00 L 1222.23 1358.04 L 1222.12 1356.96 L 1221.42 1356.13 L 1220.38 1355.84 L 1190.73 1356.49 L 1161.13 1356.85 L 1131.59 1356.93" fill="none" group-id="1,2" hidden="true" id="路径" node-id="95" stroke="#a95b3e" stroke-linecap="butt" stroke-width="1" target-height="63.200073" target-width="123.31995" target-x="1098.91" target-y="1355.84" visibility="hidden"></path><path d="M 1224.53 1484.25 L 1225.10 1484.54 L 1225.74 1484.48 L 1226.24 1484.08 L 1226.44 1483.47 L 1226.66 1361.43 L 1226.47 1360.81 L 1225.97 1360.40 L 1225.33 1360.32 L 1224.75 1360.62 L 1164.19 1421.53 L 1163.94 1421.89 L 1163.86 1422.32 L 1163.94 1422.76 L 1164.19 1423.12 L 1224.53 1484.25" fill="none" group-id="1,2" hidden="true" id="路径" node-id="96" stroke="#a95b3e" stroke-linecap="butt" stroke-width="1" target-height="124.22009" target-width="62.80005" target-x="1163.86" target-y="1360.32" visibility="hidden"></path><path d="M 1097.19 1360.75 L 1096.63 1360.44 L 1096.00 1360.50 L 1095.50 1360.89 L 1095.31 1361.50 L 1095.31 1482.81 L 1095.50 1483.41 L 1096.00 1483.81 L 1096.63 1483.86 L 1097.19 1483.56 L 1157.81 1422.93 L 1158.06 1422.58 L 1158.14 1422.15 L 1158.06 1421.73 L 1157.81 1421.37 L 1097.19 1360.75" fill="none" group-id="1,2" hidden="true" id="路径" node-id="97" stroke="#a95b3e" stroke-linecap="butt" stroke-width="1" target-height="123.420044" target-width="62.829956" target-x="1095.31" target-y="1360.44" visibility="hidden"></path><path d="M 1099.03 1486.47 L 1098.78 1486.94 L 1098.83 1487.48 L 1099.17 1487.90 L 1099.69 1488.06 L 1222.31 1488.06 L 1222.83 1487.90 L 1223.17 1487.48 L 1223.22 1486.94 L 1222.97 1486.47 L 1161.66 1425.15 L 1161.00 1424.88 L 1160.34 1425.15 L 1099.03 1486.47" fill="none" group-id="1,2" hidden="true" id="路径" node-id="98" stroke="#a95b3e" stroke-linecap="butt" stroke-width="1" target-height="63.180054" target-width="124.43994" target-x="1098.78" target-y="1424.88" visibility="hidden"></path></g><path d="M 1600.00 923.50 L 1600.00 928.97 C 1595.72 949.59 1582.50 953.97 1562.31 953.53 C 1493.94 952.07 1425.55 950.62 1357.16 949.18 C 1356.95 949.18 1356.75 949.29 1356.64 949.47 C 1356.53 949.65 1356.53 949.87 1356.62 950.06 C 1377.77 989.16 1399.00 1028.25 1420.31 1067.31 C 1426.94 1079.41 1430.71 1088.06 1431.62 1093.25 C 1435.56 1115.40 1417.12 1125.12 1397.56 1124.93 C 1377.92 1124.77 1358.18 1124.78 1338.34 1124.97 C 1337.26 1124.97 1336.72 1125.51 1336.72 1126.59 C 1336.70 1261.90 1336.70 1397.20 1336.72 1532.50 C 1336.75 1558.47 1327.47 1568.62 1300.34 1568.62 C 984.32 1568.62 668.31 1568.62 352.31 1568.62 C 330.59 1568.62 321.91 1556.37 321.91 1535.00 C 321.86 1398.62 321.85 1262.34 321.88 1126.15 C 321.88 1125.46 321.33 1124.90 320.66 1124.90 C 282.41 1124.82 244.26 1124.83 206.22 1124.93 C 196.34 1124.98 188.81 1123.62 183.62 1120.87 C 164.19 1110.62 166.81 1089.65 179.62 1074.81 C 215.35 1033.43 251.07 991.99 286.78 950.47 C 286.93 950.28 286.97 950.03 286.87 949.82 C 286.78 949.61 286.57 949.48 286.34 949.50 C 201.72 952.16 117.02 954.64 32.25 956.93 C 14.81 957.40 3.38 949.62 0.00 932.50 L 0.00 925.47 C 2.02 918.24 4.38 913.36 7.06 910.84 C 89.04 834.19 171.03 757.58 253.03 681.00 C 253.91 680.18 254.89 679.54 255.97 679.06 L 261.47 676.53 C 262.99 675.82 263.01 675.07 261.53 674.28 C 175.88 628.47 207.19 514.25 300.72 514.62 C 301.82 514.62 302.75 513.82 302.91 512.75 C 311.59 451.12 376.72 399.28 433.06 448.68 C 433.98 449.50 434.74 449.37 435.34 448.31 C 442.99 434.89 454.04 429.53 468.50 432.22 C 487.08 435.67 505.52 439.35 523.81 443.25 C 524.24 443.34 524.69 443.19 524.98 442.86 C 525.27 442.53 525.36 442.07 525.22 441.65 C 503.45 379.99 490.50 316.59 486.38 251.47 C 486.17 247.99 486.74 240.97 488.09 230.40 C 494.34 181.87 531.66 156.12 580.53 160.15 C 642.25 165.28 703.50 183.68 751.31 224.84 C 752.02 225.44 752.83 225.66 753.75 225.50 L 791.38 218.22 C 793.35 217.84 793.41 217.30 791.53 216.59 C 743.22 198.40 687.34 159.25 697.41 100.06 C 705.00 55.43 750.53 36.90 792.34 46.40 C 793.39 46.63 794.16 46.28 794.66 45.34 C 833.38 -26.72 922.88 -9.44 933.19 72.81 C 939.53 123.43 921.84 175.40 894.56 217.28 C 893.98 218.15 894.21 218.72 895.25 218.97 L 938.34 228.87 C 939.24 229.08 940.03 228.89 940.72 228.31 C 986.66 188.95 1041.82 166.22 1106.22 160.09 C 1172.22 153.81 1203.94 198.09 1198.47 259.25 C 1193.32 316.54 1180.93 372.94 1161.28 428.47 C 1159.53 433.34 1160.50 437.34 1163.47 441.09 C 1164.16 441.97 1165.04 442.30 1166.12 442.09 C 1181.12 438.97 1207.12 437.50 1217.41 425.90 C 1220.03 422.94 1225.41 420.10 1233.53 417.37 C 1268.84 405.56 1303.50 416.31 1330.03 442.53 C 1331.86 444.36 1333.83 444.53 1335.94 443.03 C 1396.22 400.15 1483.03 436.78 1466.88 519.40 C 1454.44 582.81 1403.03 633.34 1349.31 664.75 C 1348.21 665.41 1347.66 666.39 1347.66 667.68 L 1347.66 684.43 C 1347.66 685.62 1348.25 686.27 1349.44 686.37 C 1365.97 687.81 1389.62 686.34 1401.59 699.34 C 1466.26 769.49 1530.80 839.75 1595.22 910.12 C 1596.82 911.87 1598.42 916.33 1600.00 923.50 Z M 809.22 85.28 C 795.99 76.13 783.04 71.36 770.38 70.97 C 748.44 70.31 727.44 85.18 724.41 107.65 C 716.69 165.12 822.31 207.59 866.69 206.09 C 867.75 206.05 868.58 205.59 869.19 204.72 C 896.97 164.09 917.91 104.53 900.53 56.37 C 894.22 38.84 875.31 22.09 855.22 28.53 C 829.64 36.76 815.06 55.33 811.50 84.25 C 811.31 85.85 810.55 86.19 809.22 85.28 Z M 520.94 313.87 C 529.04 358.77 540.59 402.80 555.59 445.97 L 545.44 475.68 C 545.12 476.64 544.47 477.03 543.47 476.84 C 535.59 475.28 462.56 460.09 461.50 462.00 C 461.19 462.58 461.35 462.93 462.00 463.06 L 541.16 478.87 C 543.11 479.27 543.85 480.43 543.38 482.37 L 536.16 511.06 C 535.97 511.77 535.51 512.12 534.78 512.12 L 462.34 513.25 C 462.24 513.25 462.15 513.28 462.06 513.34 C 461.75 513.51 461.52 513.67 461.38 513.84 C 460.71 514.55 460.82 514.90 461.72 514.90 L 534.72 515.18 C 535.78 515.18 536.31 515.72 536.31 516.78 C 536.21 528.47 539.97 538.63 547.59 547.28 C 548.51 548.30 548.29 548.94 546.94 549.22 L 483.16 561.78 C 482.53 561.90 482.30 562.28 482.47 562.90 C 482.97 564.81 541.28 552.75 547.88 551.43 C 550.17 555.16 551.20 558.67 550.97 561.97 L 498.44 695.84 C 498.19 695.92 497.93 696.01 497.66 696.09 L 272.31 702.40 C 271.21 702.44 270.25 702.84 269.44 703.59 L 29.94 927.53 C 28.88 928.53 29.07 929.01 30.53 928.97 C 147.78 926.38 246.26 923.54 325.97 920.43 C 335.57 920.06 343.06 920.19 348.44 920.84 L 197.75 1095.72 C 197.46 1096.04 197.39 1096.51 197.58 1096.92 C 197.77 1097.32 198.18 1097.58 198.62 1097.59 L 349.28 1097.84 L 349.25 1539.75 C 349.25 1540.59 349.94 1541.28 350.78 1541.28 L 1307.00 1541.28 C 1308.02 1541.28 1308.53 1540.77 1308.53 1539.75 L 1308.56 1098.59 L 1403.59 1097.75 C 1404.07 1097.74 1404.52 1097.48 1404.76 1097.07 C 1405.00 1096.65 1405.01 1096.14 1404.78 1095.72 L 1310.16 920.31 L 1570.66 925.84 C 1570.90 925.84 1571.12 925.70 1571.22 925.47 C 1571.32 925.25 1571.28 924.99 1571.12 924.81 L 1381.47 718.43 C 1380.70 717.60 1379.74 717.13 1378.59 717.03 C 1307.61 710.13 1236.62 703.39 1165.62 696.81 C 1165.40 696.79 1164.58 697.26 1163.19 698.22 C 1162.98 697.55 1162.45 696.80 1161.59 695.97 L 1125.28 591.00 C 1134.99 579.77 1143.07 567.86 1149.53 555.28 C 1166.39 557.05 1183.39 560.00 1200.53 564.12 C 1203.30 564.79 1203.84 564.26 1202.16 562.53 C 1199.09 559.37 1160.66 553.62 1153.72 552.34 C 1153.36 552.27 1153.06 552.02 1152.93 551.67 C 1152.81 551.32 1152.88 550.93 1153.12 550.65 C 1161.38 541.05 1164.29 529.90 1161.88 517.22 C 1161.69 516.15 1162.12 515.62 1163.19 515.62 L 1213.28 515.62 C 1223.41 565.68 1266.88 614.53 1305.22 644.68 C 1308.16 647.02 1311.45 648.75 1315.09 649.87 C 1316.11 650.20 1317.11 650.13 1318.09 649.65 C 1370.12 624.03 1423.09 578.37 1438.38 520.22 C 1445.25 493.90 1438.44 462.87 1408.53 455.56 C 1375.53 447.47 1348.59 462.62 1328.22 487.37 C 1327.39 488.35 1326.70 488.26 1326.16 487.09 C 1311.88 456.53 1285.09 435.28 1249.81 441.72 C 1238.83 443.69 1229.74 449.80 1222.53 460.03 L 1149.50 475.06 C 1148.31 475.31 1147.48 474.88 1147.00 473.78 L 1129.56 434.25 C 1144.58 393.56 1156.12 351.89 1164.19 309.25 C 1171.91 266.90 1187.94 183.84 1115.22 187.40 C 1052.94 190.50 992.00 215.18 948.81 260.53 C 948.10 261.28 947.25 261.52 946.25 261.25 L 901.56 248.97 C 892.35 246.30 882.98 245.08 873.44 245.31 C 869.85 243.50 866.21 243.24 862.50 244.53 C 853.48 242.69 844.41 242.39 835.28 243.62 C 831.80 242.31 828.33 242.31 824.88 243.62 C 815.69 243.29 806.61 244.11 797.66 246.09 C 780.28 247.90 763.17 251.47 746.31 256.78 C 745.29 257.11 744.41 256.89 743.66 256.12 C 700.97 212.97 646.03 195.84 586.75 188.90 C 497.69 178.47 512.59 258.56 520.94 313.87 Z M 329.53 546.53 C 296.31 538.90 266.53 540.53 246.31 570.56 C 227.25 598.84 247.22 634.09 273.34 649.28 C 319.59 676.15 388.75 677.75 441.59 666.09 C 442.66 665.84 443.35 665.19 443.69 664.15 C 461.44 605.90 463.31 527.81 423.34 477.43 C 410.44 461.18 387.00 452.00 367.19 461.75 C 335.97 477.15 325.97 511.90 331.22 544.97 C 331.43 546.32 330.86 546.84 329.53 546.53 Z" fill="#ffffff" fill-rule="nonzero" group-id="1" id="形状" node-id="99" stroke="none" target-height="1595.34" target-width="1600" target-x="0" target-y="-26.72"></path><path d="M 811.50 84.25 C 815.06 55.33 829.64 36.76 855.22 28.53 C 875.31 22.09 894.22 38.84 900.53 56.37 C 917.91 104.53 896.97 164.09 869.19 204.72 C 868.58 205.59 867.75 206.05 866.69 206.09 C 822.31 207.59 716.69 165.12 724.41 107.65 C 727.44 85.18 748.44 70.31 770.38 70.97 C 783.04 71.36 795.99 76.13 809.22 85.28 C 810.55 86.19 811.31 85.85 811.50 84.25 Z" fill="#ff7a79" fill-rule="nonzero" group-id="1" id="路径" node-id="100" stroke="none" target-height="185.5" target-width="201.21997" target-x="716.69" target-y="22.09"></path><path d="M 797.66 246.09 C 798.22 258.65 800.62 302.12 814.72 300.53 C 815.78 300.40 816.64 299.91 817.28 299.06 C 826.22 287.22 825.22 253.75 824.88 243.62 C 828.33 242.31 831.80 242.31 835.28 243.62 C 836.45 261.41 839.33 278.98 843.94 296.31 C 844.51 298.47 846.14 300.19 848.27 300.86 C 850.40 301.54 852.72 301.08 854.44 299.65 C 864.31 291.34 863.47 254.87 862.50 244.53 C 866.21 243.24 869.85 243.50 873.44 245.31 C 873.94 257.65 876.38 301.97 890.22 300.53 C 891.24 300.42 892.08 299.99 892.75 299.22 C 901.31 289.12 900.22 262.15 901.56 248.97 L 946.25 261.25 C 947.25 261.52 948.10 261.28 948.81 260.53 C 992.00 215.18 1052.94 190.50 1115.22 187.40 C 1187.94 183.84 1171.91 266.90 1164.19 309.25 C 1162.59 302.47 1164.97 296.34 1164.56 290.43 C 1162.59 262.43 1152.38 239.43 1120.25 238.22 C 1072.38 236.40 1030.06 250.57 993.31 280.72 C 993.10 280.89 992.98 281.15 993.00 281.43 C 993.02 281.70 993.17 281.95 993.41 282.09 C 1055.03 317.18 1096.19 370.43 1129.56 434.25 L 1147.00 473.78 C 1147.48 474.88 1148.31 475.31 1149.50 475.06 L 1222.53 460.03 C 1221.93 463.15 1220.21 464.72 1217.38 464.72 L 1151.47 477.62 C 1149.82 477.95 1149.28 478.90 1149.84 480.47 L 1160.72 510.97 C 1161.09 511.99 1161.81 512.50 1162.88 512.50 L 1212.50 513.03 L 1215.62 513.28 L 1216.41 514.59 L 1213.28 515.62 L 1163.19 515.62 C 1162.12 515.62 1161.69 516.15 1161.88 517.22 C 1164.29 529.90 1161.38 541.05 1153.12 550.65 C 1152.88 550.93 1152.81 551.32 1152.93 551.67 C 1153.06 552.02 1153.36 552.27 1153.72 552.34 C 1160.66 553.62 1199.09 559.37 1202.16 562.53 C 1203.84 564.26 1203.30 564.79 1200.53 564.12 C 1183.39 560.00 1166.39 557.05 1149.53 555.28 C 1126.41 568.44 1101.90 575.41 1076.00 576.18 C 1014.25 578.03 953.06 560.31 935.69 492.84 C 928.21 463.76 923.59 441.63 921.84 426.47 C 916.78 382.59 879.56 329.72 830.38 356.03 C 809.69 367.09 798.16 398.59 793.69 420.18 C 772.31 523.09 687.44 593.09 579.47 566.31 C 574.57 565.08 569.23 562.83 563.44 559.56 C 558.38 556.68 553.19 553.98 547.88 551.43 C 541.28 552.75 482.97 564.81 482.47 562.90 C 482.30 562.28 482.53 561.90 483.16 561.78 L 546.94 549.22 C 548.29 548.94 548.51 548.30 547.59 547.28 C 539.97 538.63 536.21 528.47 536.31 516.78 C 536.31 515.72 535.78 515.18 534.72 515.18 L 461.72 514.90 C 460.82 514.90 460.71 514.55 461.38 513.84 C 461.52 513.67 461.75 513.51 462.06 513.34 C 462.15 513.28 462.24 513.25 462.34 513.25 L 534.78 512.12 C 535.51 512.12 535.97 511.77 536.16 511.06 L 543.38 482.37 C 543.85 480.43 543.11 479.27 541.16 478.87 L 462.00 463.06 C 461.35 462.93 461.19 462.58 461.50 462.00 C 462.56 460.09 535.59 475.28 543.47 476.84 C 544.47 477.03 545.12 476.64 545.44 475.68 L 555.59 445.97 C 587.19 374.75 625.88 319.31 693.78 278.78 C 693.93 278.70 694.03 278.55 694.03 278.38 C 694.04 278.21 693.95 278.05 693.81 277.97 C 657.35 252.17 616.75 239.48 572.00 239.87 C 525.19 240.28 519.16 276.00 520.94 313.87 C 512.59 258.56 497.69 178.47 586.75 188.90 C 646.03 195.84 700.97 212.97 743.66 256.12 C 744.41 256.89 745.29 257.11 746.31 256.78 C 763.17 251.47 780.28 247.90 797.66 246.09 Z M 731.34 441.47 C 731.34 419.98 713.92 402.56 692.44 402.56 C 670.95 402.56 653.53 419.98 653.53 441.47 C 653.53 462.95 670.95 480.37 692.44 480.37 C 713.92 480.37 731.34 462.95 731.34 441.47 Z M 1044.03 441.53 C 1044.03 431.21 1039.93 421.31 1032.64 414.02 C 1025.34 406.72 1015.44 402.62 1005.12 402.62 C 994.81 402.62 984.91 406.72 977.61 414.02 C 970.32 421.31 966.22 431.21 966.22 441.53 C 966.22 463.02 983.64 480.43 1005.12 480.43 C 1026.61 480.43 1044.03 463.02 1044.03 441.53 Z" fill="#523e3f" fill-rule="nonzero" group-id="1" id="形状" node-id="101" stroke="none" target-height="414.62003" target-width="761.82007" target-x="460.71" target-y="178.47"></path><path d="M 1164.19 309.25 C 1156.12 351.89 1144.58 393.56 1129.56 434.25 C 1096.19 370.43 1055.03 317.18 993.41 282.09 C 993.17 281.95 993.02 281.70 993.00 281.43 C 992.98 281.15 993.10 280.89 993.31 280.72 C 1030.06 250.57 1072.38 236.40 1120.25 238.22 C 1152.38 239.43 1162.59 262.43 1164.56 290.43 C 1164.97 296.34 1162.59 302.47 1164.19 309.25 Z" fill="#ff7a79" fill-rule="nonzero" group-id="1" id="路径" node-id="102" stroke="none" target-height="197.85" target-width="171.98999" target-x="992.98" target-y="236.4"></path><path d="M 555.59 445.97 C 540.59 402.80 529.04 358.77 520.94 313.87 C 519.16 276.00 525.19 240.28 572.00 239.87 C 616.75 239.48 657.35 252.17 693.81 277.97 C 693.95 278.05 694.04 278.21 694.03 278.38 C 694.03 278.55 693.93 278.70 693.78 278.78 C 625.88 319.31 587.19 374.75 555.59 445.97 Z" fill="#ff7a79" fill-rule="nonzero" group-id="1" id="路径" node-id="103" stroke="none" target-height="206.49" target-width="174.88" target-x="519.16" target-y="239.48"></path><path d="M 824.88 243.62 C 825.22 253.75 826.22 287.22 817.28 299.06 C 816.64 299.91 815.78 300.40 814.72 300.53 C 800.62 302.12 798.22 258.65 797.66 246.09 C 806.61 244.11 815.69 243.29 824.88 243.62 Z" fill="#ffe4cf" fill-rule="nonzero" group-id="1" id="路径" node-id="104" stroke="none" target-height="58.83" target-width="28.559998" target-x="797.66" target-y="243.29"></path><path d="M 862.50 244.53 C 863.47 254.87 864.31 291.34 854.44 299.65 C 852.72 301.08 850.40 301.54 848.27 300.86 C 846.14 300.19 844.51 298.47 843.94 296.31 C 839.33 278.98 836.45 261.41 835.28 243.62 C 844.41 242.39 853.48 242.69 862.50 244.53 Z" fill="#ffe4cf" fill-rule="nonzero" group-id="1" id="路径" node-id="105" stroke="none" target-height="59.15001" target-width="29.029968" target-x="835.28" target-y="242.39"></path><path d="M 901.56 248.97 C 900.22 262.15 901.31 289.12 892.75 299.22 C 892.08 299.99 891.24 300.42 890.22 300.53 C 876.38 301.97 873.94 257.65 873.44 245.31 C 882.98 245.08 892.35 246.30 901.56 248.97 Z" fill="#ffe4cf" fill-rule="nonzero" group-id="1" id="路径" node-id="106" stroke="none" target-height="56.89" target-width="28.119995" target-x="873.44" target-y="245.08"></path><path d="M 1149.53 555.28 C 1143.07 567.86 1134.99 579.77 1125.28 591.00 C 1106.18 609.25 1084.95 624.70 1061.59 637.37 C 972.31 678.15 869.03 685.68 771.09 674.90 C 724.34 669.76 680.38 655.94 639.19 633.47 C 606.19 614.11 576.78 590.28 550.97 561.97 C 551.20 558.67 550.17 555.16 547.88 551.43 C 553.19 553.98 558.38 556.68 563.44 559.56 C 569.23 562.83 574.57 565.08 579.47 566.31 C 687.44 593.09 772.31 523.09 793.69 420.18 C 798.16 398.59 809.69 367.09 830.38 356.03 C 879.56 329.72 916.78 382.59 921.84 426.47 C 923.59 441.63 928.21 463.76 935.69 492.84 C 953.06 560.31 1014.25 578.03 1076.00 576.18 C 1101.90 575.41 1126.41 568.44 1149.53 555.28 Z M 853.84 503.97 C 854.01 503.60 854.38 503.37 854.79 503.38 C 855.19 503.40 855.54 503.65 855.69 504.03 C 861.69 520.97 875.34 541.47 896.88 534.43 C 916.03 528.18 911.97 510.93 899.16 500.47 C 898.72 500.12 898.13 500.02 897.61 500.21 C 897.09 500.40 896.70 500.85 896.59 501.40 L 896.16 503.53 C 895.95 504.59 896.30 505.40 897.22 505.97 C 919.25 519.34 892.34 538.62 876.66 527.06 C 868.72 521.16 862.75 511.39 858.75 497.75 C 858.50 496.85 858.76 496.14 859.53 495.62 C 864.12 492.50 888.06 477.59 887.28 472.59 C 886.84 469.70 885.20 467.38 883.00 466.53 C 870.56 461.72 830.16 457.22 822.78 471.72 C 821.24 474.75 822.28 478.47 825.19 480.25 L 850.25 495.53 C 851.23 496.11 851.51 496.93 851.09 498.00 C 845.81 511.40 838.16 531.09 821.88 533.47 C 811.29 535.01 804.99 530.64 802.97 520.37 C 802.76 519.31 802.97 518.34 803.59 517.47 L 811.84 505.87 C 812.30 505.20 812.23 504.61 811.62 504.09 C 807.28 500.34 800.03 514.18 799.31 516.75 C 793.62 536.75 818.94 542.65 832.44 534.81 C 844.22 528.00 848.59 515.87 853.84 503.97 Z" fill="#ffe4cf" fill-rule="nonzero" group-id="1" id="形状" node-id="107" stroke="none" target-height="355.96" target-width="601.65" target-x="547.88" target-y="329.72"></path><path d="M 731.34 441.47 C 731.34 462.95 713.92 480.37 692.44 480.37 C 670.95 480.37 653.53 462.95 653.53 441.47 C 653.53 419.98 670.95 402.56 692.44 402.56 C 713.92 402.56 731.34 419.98 731.34 441.47 Z" fill="#3f2f30" fill-rule="nonzero" group-id="1" id="椭圆形" node-id="108" stroke="none" target-height="77.81" target-width="77.81" target-x="653.53" target-y="402.56"></path><path d="M 1044.03 441.53 C 1044.03 463.02 1026.61 480.43 1005.12 480.43 C 983.64 480.43 966.22 463.02 966.22 441.53 C 966.22 420.04 983.64 402.62 1005.12 402.62 C 1026.61 402.62 1044.03 420.04 1044.03 441.53 Z" fill="#3f2f30" fill-rule="nonzero" group-id="1" id="椭圆形" node-id="109" stroke="none" target-height="77.81" target-width="77.81006" target-x="966.22" target-y="402.62"></path><path d="M 1213.28 515.62 L 1216.41 514.59 C 1218.22 514.94 1220.02 514.94 1221.81 514.59 C 1223.58 514.26 1223.60 513.85 1221.88 513.37 C 1219.85 512.81 1217.77 512.78 1215.62 513.28 L 1212.50 513.03 C 1209.90 496.59 1211.52 480.49 1217.38 464.72 C 1220.21 464.72 1221.93 463.15 1222.53 460.03 C 1229.74 449.80 1238.83 443.69 1249.81 441.72 C 1285.09 435.28 1311.88 456.53 1326.16 487.09 C 1326.70 488.26 1327.39 488.35 1328.22 487.37 C 1348.59 462.62 1375.53 447.47 1408.53 455.56 C 1438.44 462.87 1445.25 493.90 1438.38 520.22 C 1423.09 578.37 1370.12 624.03 1318.09 649.65 C 1317.11 650.13 1316.11 650.20 1315.09 649.87 C 1311.45 648.75 1308.16 647.02 1305.22 644.68 C 1266.88 614.53 1223.41 565.68 1213.28 515.62 Z" fill="#ff7a79" fill-rule="nonzero" group-id="1" id="路径" node-id="110" stroke="none" target-height="214.92001" target-width="235.34998" target-x="1209.9" target-y="435.28"></path><path d="M 331.22 544.97 C 325.97 511.90 335.97 477.15 367.19 461.75 C 387.00 452.00 410.44 461.18 423.34 477.43 C 463.31 527.81 461.44 605.90 443.69 664.15 C 443.35 665.19 442.66 665.84 441.59 666.09 C 388.75 677.75 319.59 676.15 273.34 649.28 C 247.22 634.09 227.25 598.84 246.31 570.56 C 266.53 540.53 296.31 538.90 329.53 546.53 C 330.86 546.84 331.43 546.32 331.22 544.97 Z" fill="#ff7a79" fill-rule="nonzero" group-id="1" id="路径" node-id="111" stroke="none" target-height="225.75" target-width="236.06" target-x="227.25" target-y="452"></path><path d="M 853.84 503.97 C 848.59 515.87 844.22 528.00 832.44 534.81 C 818.94 542.65 793.62 536.75 799.31 516.75 C 800.03 514.18 807.28 500.34 811.62 504.09 C 812.23 504.61 812.30 505.20 811.84 505.87 L 803.59 517.47 C 802.97 518.34 802.76 519.31 802.97 520.37 C 804.99 530.64 811.29 535.01 821.88 533.47 C 838.16 531.09 845.81 511.40 851.09 498.00 C 851.51 496.93 851.23 496.11 850.25 495.53 L 825.19 480.25 C 822.28 478.47 821.24 474.75 822.78 471.72 C 830.16 457.22 870.56 461.72 883.00 466.53 C 885.20 467.38 886.84 469.70 887.28 472.59 C 888.06 477.59 864.12 492.50 859.53 495.62 C 858.76 496.14 858.50 496.85 858.75 497.75 C 862.75 511.39 868.72 521.16 876.66 527.06 C 892.34 538.62 919.25 519.34 897.22 505.97 C 896.30 505.40 895.95 504.59 896.16 503.53 L 896.59 501.40 C 896.70 500.85 897.09 500.40 897.61 500.21 C 898.13 500.02 898.72 500.12 899.16 500.47 C 911.97 510.93 916.03 528.18 896.88 534.43 C 875.34 541.47 861.69 520.97 855.69 504.03 C 855.54 503.65 855.19 503.40 854.79 503.38 C 854.38 503.37 854.01 503.60 853.84 503.97 Z" fill="#523e3f" fill-rule="nonzero" group-id="1" id="路径" node-id="112" stroke="none" target-height="85.43002" target-width="125.630005" target-x="793.62" target-y="457.22"></path><path d="M 1217.38 464.72 C 1211.52 480.49 1209.90 496.59 1212.50 513.03 L 1162.88 512.50 C 1161.81 512.50 1161.09 511.99 1160.72 510.97 L 1149.84 480.47 C 1149.28 478.90 1149.82 477.95 1151.47 477.62 L 1217.38 464.72 Z" fill="#ffffff" fill-rule="nonzero" group-id="1" id="路径" node-id="113" stroke="none" target-height="48.310028" target-width="68.099976" target-x="1149.28" target-y="464.72"></path><path d="M 1215.62 513.28 C 1217.77 512.78 1219.85 512.81 1221.88 513.37 C 1223.60 513.85 1223.58 514.26 1221.81 514.59 C 1220.02 514.94 1218.22 514.94 1216.41 514.59 L 1215.62 513.28 Z" fill="#3f2f30" fill-rule="nonzero" group-id="1" id="路径" node-id="114" stroke="none" target-height="2.1599731" target-width="7.9799805" target-x="1215.62" target-y="512.78"></path><path d="M 639.19 633.47 L 630.34 643.62 C 611.66 660.58 594.84 678.98 579.91 698.81 C 552.74 696.77 525.58 695.78 498.44 695.84 L 550.97 561.97 C 576.78 590.28 606.19 614.11 639.19 633.47 Z" fill="#9daef5" fill-rule="nonzero" group-id="1" id="路径" node-id="115" stroke="none" target-height="136.84003" target-width="140.75" target-x="498.44" target-y="561.97"></path><path d="M 1125.28 591.00 L 1161.59 695.97 L 1102.75 698.43 C 1091.21 679.18 1078.35 660.65 1064.19 642.84 L 1061.59 637.37 C 1084.95 624.70 1106.18 609.25 1125.28 591.00 Z" fill="#9daef5" fill-rule="nonzero" group-id="1" id="路径" node-id="116" stroke="none" target-height="107.42999" target-width="100" target-x="1061.59" target-y="591"></path><path d="M 639.19 633.47 C 680.38 655.94 724.34 669.76 771.09 674.90 C 869.03 685.68 972.31 678.15 1061.59 637.37 L 1064.19 642.84 C 964.62 737.31 828.19 772.43 702.41 705.34 C 675.18 690.82 651.16 670.25 630.34 643.62 L 639.19 633.47 Z" fill="#3f2f30" fill-rule="nonzero" group-id="1" id="路径" node-id="117" stroke="none" target-height="138.96002" target-width="433.8499" target-x="630.34" target-y="633.47"></path><path d="M 1064.19 642.84 C 1078.35 660.65 1091.21 679.18 1102.75 698.43 C 1141.69 766.62 1162.12 839.98 1164.06 918.50 L 1120.44 919.40 C 1126.22 859.93 1101.59 805.40 1046.53 780.72 C 1021.25 769.37 998.66 769.31 975.84 784.34 C 929.72 814.78 911.38 864.06 918.62 918.62 L 760.91 919.53 C 765.28 858.25 740.09 807.09 682.72 782.12 C 658.59 771.62 635.89 773.53 614.59 787.84 C 568.53 818.81 554.47 864.34 557.69 918.62 C 539.15 920.29 520.66 920.03 502.22 917.84 C 506.72 837.26 532.61 764.25 579.91 698.81 C 594.84 678.98 611.66 660.58 630.34 643.62 C 651.16 670.25 675.18 690.82 702.41 705.34 C 828.19 772.43 964.62 737.31 1064.19 642.84 Z M 1078.09 706.07 C 1079.44 705.04 1079.72 702.72 1078.87 699.64 C 1078.02 696.56 1076.10 692.96 1073.55 689.63 C 1068.23 682.70 1061.65 678.83 1058.84 680.98 C 1057.49 682.02 1057.22 684.33 1058.07 687.41 C 1058.92 690.50 1060.83 694.10 1063.39 697.43 C 1068.70 704.36 1075.29 708.23 1078.09 706.07 L 1078.09 706.07 Z M 1081.97 719.93 C 1079.69 726.84 1096.62 762.56 1103.97 762.81 C 1118.03 763.28 1093.84 722.40 1090.22 718.25 C 1086.51 714.00 1083.76 714.56 1081.97 719.93 Z" fill="#523e3f" fill-rule="nonzero" group-id="1" id="形状" node-id="118" stroke="none" target-height="277.44995" target-width="661.8401" target-x="502.22" target-y="642.84"></path><path d="M 1078.09 706.07 L 1077.09 706.55 L 1075.83 706.66 L 1074.22 706.33 L 1071.81 705.23 L 1068.94 703.23 L 1066.19 700.69 L 1063.39 697.43 L 1060.96 693.87 L 1059.22 690.56 L 1058.03 687.27 L 1057.59 684.66 L 1057.69 683.02 L 1058.12 681.83 L 1058.84 680.98 L 1059.85 680.50 L 1061.11 680.39 L 1062.72 680.73 L 1065.13 681.83 L 1068.00 683.83 L 1070.74 686.36 L 1073.55 689.63 L 1075.98 693.19 L 1077.72 696.49 L 1078.91 699.78 L 1079.35 702.39 L 1079.25 704.04 L 1078.82 705.22 L 1078.09 706.07 Z" fill="#ffffff" fill-rule="nonzero" group-id="1,3" id="椭圆形" node-id="119" stroke="none" target-height="26.269958" target-width="21.76001" target-x="1057.59" target-y="680.39"></path><path d="M 497.66 696.09 L 351.09 918.15 C 350.47 919.15 349.58 920.05 348.44 920.84 C 343.06 920.19 335.57 920.06 325.97 920.43 C 246.26 923.54 147.78 926.38 30.53 928.97 C 29.07 929.01 28.88 928.53 29.94 927.53 L 269.44 703.59 C 270.25 702.84 271.21 702.44 272.31 702.40 L 497.66 696.09 Z" fill="#9daef5" fill-rule="nonzero" group-id="1" id="路径" node-id="120" stroke="none" target-height="232.91998" target-width="468.78" target-x="28.88" target-y="696.09"></path><path d="M 497.66 696.09 C 497.93 696.01 498.19 695.92 498.44 695.84 C 525.58 695.78 552.74 696.77 579.91 698.81 C 532.61 764.25 506.72 837.26 502.22 917.84 C 452.24 918.99 401.86 919.09 351.09 918.15 L 497.66 696.09 Z" fill="#546aca" fill-rule="nonzero" group-id="1" id="路径" node-id="121" stroke="none" target-height="223.31" target-width="228.81998" target-x="351.09" target-y="695.78"></path><path d="M 1161.59 695.97 C 1162.45 696.80 1162.98 697.55 1163.19 698.22 L 1306.38 917.06 C 1306.17 917.27 1305.99 917.51 1305.84 917.78 C 1305.51 918.38 1305.00 918.68 1304.31 918.68 L 1164.06 918.50 C 1162.12 839.98 1141.69 766.62 1102.75 698.43 L 1161.59 695.97 Z" fill="#546aca" fill-rule="nonzero" group-id="1" id="路径" node-id="122" stroke="none" target-height="222.71002" target-width="203.63" target-x="1102.75" target-y="695.97"></path><path d="M 1310.16 920.31 L 1306.38 917.06 L 1163.19 698.22 C 1164.58 697.26 1165.40 696.79 1165.62 696.81 C 1236.62 703.39 1307.61 710.13 1378.59 717.03 C 1379.74 717.13 1380.70 717.60 1381.47 718.43 L 1571.12 924.81 C 1571.28 924.99 1571.32 925.25 1571.22 925.47 C 1571.12 925.70 1570.90 925.84 1570.66 925.84 L 1310.16 920.31 Z" fill="#9daef5" fill-rule="nonzero" group-id="1" id="路径" node-id="123" stroke="none" target-height="229.05005" target-width="408.13" target-x="1163.19" target-y="696.79"></path><path d="M 1103.97 762.81 C 1096.62 762.56 1079.69 726.84 1081.97 719.93 C 1083.76 714.56 1086.51 714.00 1090.22 718.25 C 1093.84 722.40 1118.03 763.28 1103.97 762.81 Z" fill="#ffffff" fill-rule="nonzero" group-id="1" id="路径" node-id="124" stroke="none" target-height="49.28003" target-width="38.340088" target-x="1079.69" target-y="714"></path><path d="M 1120.44 919.40 C 1112.75 965.03 1089.03 1001.97 1043.75 1016.93 C 1045.91 1006.00 1056.50 929.25 1045.69 934.97 C 1044.88 935.38 1044.48 936.05 1044.50 936.97 C 1044.98 964.34 1042.91 991.52 1038.28 1018.50 C 1019.72 1023.70 1001.49 1022.92 983.59 1016.15 C 980.66 986.30 981.45 956.48 985.97 926.68 C 986.15 925.55 985.76 924.41 984.94 923.62 C 983.02 921.79 981.86 921.89 981.47 923.93 C 975.59 953.79 974.44 983.79 978.00 1013.93 C 939.53 997.18 922.72 957.72 918.62 918.62 C 911.38 864.06 929.72 814.78 975.84 784.34 C 998.66 769.31 1021.25 769.37 1046.53 780.72 C 1101.59 805.40 1126.22 859.93 1120.44 919.40 Z" fill="#ffe4cf" fill-rule="nonzero" group-id="1" id="路径" node-id="125" stroke="none" target-height="254.39001" target-width="214.83997" target-x="911.38" target-y="769.31"></path><path d="M 760.91 919.53 C 754.19 959.78 737.28 992.06 701.50 1013.06 C 699.90 1014.00 698.57 1014.03 697.53 1013.15 C 697.50 1005.06 692.16 922.56 683.00 925.97 C 681.57 926.51 680.75 928.05 681.09 929.56 C 687.86 958.10 691.60 987.01 692.31 1016.28 C 675.35 1024.44 657.65 1026.53 639.19 1022.53 C 629.48 992.34 623.64 961.37 621.66 929.62 C 621.58 928.43 620.71 927.45 619.56 927.25 C 608.09 925.22 629.81 1011.87 632.56 1020.75 C 610.96 1016.95 594.32 1006.36 582.66 988.97 C 568.91 968.53 560.58 945.08 557.69 918.62 C 554.47 864.34 568.53 818.81 614.59 787.84 C 635.89 773.53 658.59 771.62 682.72 782.12 C 740.09 807.09 765.28 858.25 760.91 919.53 Z" fill="#ffe4cf" fill-rule="nonzero" group-id="1" id="路径" node-id="126" stroke="none" target-height="254.91003" target-width="210.81006" target-x="554.47" target-y="771.62"></path><path d="M 1306.38 917.06 L 1310.16 920.31 L 1404.78 1095.72 C 1405.01 1096.14 1405.00 1096.65 1404.76 1097.07 C 1404.52 1097.48 1404.07 1097.74 1403.59 1097.75 L 1308.56 1098.59 C 1306.84 1095.34 1303.25 1097.50 1300.25 1097.50 C 983.27 1097.37 666.28 1097.49 349.28 1097.84 L 198.62 1097.59 C 198.18 1097.58 197.77 1097.32 197.58 1096.92 C 197.39 1096.51 197.46 1096.04 197.75 1095.72 L 348.44 920.84 C 349.58 920.05 350.47 919.15 351.09 918.15 C 401.86 919.09 452.24 918.99 502.22 917.84 C 520.66 920.03 539.15 920.29 557.69 918.62 C 560.58 945.08 568.91 968.53 582.66 988.97 C 594.32 1006.36 610.96 1016.95 632.56 1020.75 C 634.35 1022.89 636.56 1023.49 639.19 1022.53 C 657.65 1026.53 675.35 1024.44 692.31 1016.28 C 694.83 1016.49 696.57 1015.44 697.53 1013.15 C 698.57 1014.03 699.90 1014.00 701.50 1013.06 C 737.28 992.06 754.19 959.78 760.91 919.53 L 918.62 918.62 C 922.72 957.72 939.53 997.18 978.00 1013.93 C 979.35 1015.87 981.22 1016.61 983.59 1016.15 C 1001.49 1022.92 1019.72 1023.70 1038.28 1018.50 L 1043.75 1016.93 C 1089.03 1001.97 1112.75 965.03 1120.44 919.40 L 1164.06 918.50 L 1304.31 918.68 C 1305.00 918.68 1305.51 918.38 1305.84 917.78 C 1305.99 917.51 1306.17 917.27 1306.38 917.06 Z" fill="#9daef5" fill-rule="nonzero" group-id="1" id="路径" node-id="127" stroke="none" target-height="181.52997" target-width="1207.62" target-x="197.39" target-y="917.06"></path><path d="M 983.59 1016.15 C 981.22 1016.61 979.35 1015.87 978.00 1013.93 C 974.44 983.79 975.59 953.79 981.47 923.93 C 981.86 921.89 983.02 921.79 984.94 923.62 C 985.76 924.41 986.15 925.55 985.97 926.68 C 981.45 956.48 980.66 986.30 983.59 1016.15 Z" fill="#523e3f" fill-rule="nonzero" group-id="1" id="路径" node-id="128" stroke="none" target-height="94.82001" target-width="11.710022" target-x="974.44" target-y="921.79"></path><path d="M 697.53 1013.15 C 696.57 1015.44 694.83 1016.49 692.31 1016.28 C 691.60 987.01 687.86 958.10 681.09 929.56 C 680.75 928.05 681.57 926.51 683.00 925.97 C 692.16 922.56 697.50 1005.06 697.53 1013.15 Z" fill="#523e3f" fill-rule="nonzero" group-id="1" id="路径" node-id="129" stroke="none" target-height="93.92999" target-width="16.78003" target-x="680.75" target-y="922.56"></path><path d="M 639.19 1022.53 C 636.56 1023.49 634.35 1022.89 632.56 1020.75 C 629.81 1011.87 608.09 925.22 619.56 927.25 C 620.71 927.45 621.58 928.43 621.66 929.62 C 623.64 961.37 629.48 992.34 639.19 1022.53 Z" fill="#523e3f" fill-rule="nonzero" group-id="1" id="路径" node-id="130" stroke="none" target-height="98.27002" target-width="31.099976" target-x="608.09" target-y="925.22"></path><path d="M 1043.75 1016.93 L 1038.28 1018.50 C 1042.91 991.52 1044.98 964.34 1044.50 936.97 C 1044.48 936.05 1044.88 935.38 1045.69 934.97 C 1056.50 929.25 1045.91 1006.00 1043.75 1016.93 Z" fill="#523e3f" fill-rule="nonzero" group-id="1" id="路径" node-id="131" stroke="none" target-height="89.25" target-width="18.21997" target-x="1038.28" target-y="929.25"></path><path d="M 1308.56 1098.59 L 1308.53 1539.75 C 1308.53 1540.77 1308.02 1541.28 1307.00 1541.28 L 350.78 1541.28 C 349.94 1541.28 349.25 1540.59 349.25 1539.75 L 349.28 1097.84 C 666.28 1097.49 983.27 1097.37 1300.25 1097.50 C 1303.25 1097.50 1306.84 1095.34 1308.56 1098.59 Z M 1065.62 1355.12 C 1065.62 1354.12 1064.81 1353.31 1063.81 1353.31 L 930.00 1353.31 C 929.00 1353.31 928.19 1354.12 928.19 1355.12 L 928.19 1489.12 C 928.19 1490.12 929.00 1490.93 930.00 1490.93 L 1063.81 1490.93 C 1064.81 1490.93 1065.62 1490.12 1065.62 1489.12 L 1065.62 1355.12 Z M 1229.69 1356.50 C 1229.69 1354.56 1228.12 1353.00 1226.19 1353.00 L 1094.94 1353.00 C 1093.00 1353.00 1091.44 1354.56 1091.44 1356.50 L 1091.44 1487.75 C 1091.44 1489.68 1093.00 1491.25 1094.94 1491.25 L 1226.19 1491.25 C 1228.12 1491.25 1229.69 1489.68 1229.69 1487.75 L 1229.69 1356.50 Z" fill="#ff783d" fill-rule="nonzero" group-id="1" hidden="true" id="形状" node-id="132" stroke="none" target-height="445.94006" target-width="959.31006" target-x="349.25" target-y="1095.34" visibility="hidden"></path><path d="M 1065.62 1489.12 C 1065.62 1490.12 1064.81 1490.93 1063.81 1490.93 L 930.00 1490.93 C 929.00 1490.93 928.19 1490.12 928.19 1489.12 L 928.19 1355.12 C 928.19 1354.12 929.00 1353.31 930.00 1353.31 L 1063.81 1353.31 C 1064.81 1353.31 1065.62 1354.12 1065.62 1355.12 L 1065.62 1489.12 Z M 996.50 1419.40 C 996.69 1419.60 996.95 1419.71 997.22 1419.71 C 997.49 1419.71 997.75 1419.60 997.94 1419.40 L 1058.88 1357.84 C 1059.17 1357.55 1059.26 1357.12 1059.10 1356.74 C 1058.94 1356.36 1058.57 1356.11 1058.16 1356.12 L 935.53 1356.12 C 935.13 1356.12 934.76 1356.37 934.61 1356.75 C 934.46 1357.13 934.55 1357.56 934.84 1357.84 L 996.50 1419.40 Z M 933.88 1360.65 C 933.44 1360.21 932.77 1360.07 932.19 1360.31 C 931.61 1360.55 931.24 1361.12 931.25 1361.75 L 931.25 1482.56 C 931.24 1483.19 931.61 1483.75 932.19 1483.99 C 932.77 1484.24 933.44 1484.10 933.88 1483.65 L 994.12 1423.25 C 994.42 1422.96 994.58 1422.56 994.58 1422.15 C 994.58 1421.74 994.42 1421.35 994.12 1421.06 L 933.88 1360.65 Z M 1060.75 1483.68 C 1061.05 1483.97 1061.49 1484.06 1061.88 1483.89 C 1062.26 1483.73 1062.50 1483.35 1062.50 1482.93 L 1062.50 1361.37 C 1062.50 1360.96 1062.26 1360.58 1061.88 1360.41 C 1061.49 1360.25 1061.05 1360.33 1060.75 1360.62 L 999.94 1421.43 C 999.55 1421.83 999.55 1422.47 999.94 1422.87 L 1060.75 1483.68 Z M 935.16 1486.40 C 934.85 1486.71 934.76 1487.16 934.93 1487.56 C 935.09 1487.96 935.48 1488.21 935.91 1488.22 L 1057.69 1488.00 C 1058.12 1488.00 1058.50 1487.74 1058.67 1487.34 C 1058.83 1486.94 1058.74 1486.49 1058.44 1486.18 L 997.44 1424.87 C 997.02 1424.46 996.35 1424.46 995.94 1424.87 L 935.16 1486.40 Z" fill="#523e3f" fill-rule="nonzero" group-id="1" hidden="true" id="形状" node-id="133" stroke="none" target-height="137.62" target-width="137.43" target-x="928.19" target-y="1353.31" visibility="hidden"></path><path d="M 1229.69 1487.75 C 1229.69 1489.68 1228.12 1491.25 1226.19 1491.25 L 1094.94 1491.25 C 1093.00 1491.25 1091.44 1489.68 1091.44 1487.75 L 1091.44 1356.50 C 1091.44 1354.56 1093.00 1353.00 1094.94 1353.00 L 1226.19 1353.00 C 1228.12 1353.00 1229.69 1354.56 1229.69 1356.50 L 1229.69 1487.75 Z M 1131.59 1356.93 C 1124.16 1356.90 1110.69 1355.22 1100.38 1356.47 C 1098.67 1356.67 1098.42 1357.39 1099.62 1358.62 L 1159.59 1418.43 C 1160.51 1419.33 1161.42 1419.33 1162.31 1418.43 L 1221.72 1359.00 C 1222.26 1358.47 1222.42 1357.66 1222.12 1356.96 C 1221.82 1356.26 1221.13 1355.82 1220.38 1355.84 C 1190.73 1356.63 1161.14 1357.00 1131.59 1356.93 Z M 1224.53 1484.25 C 1224.85 1484.56 1225.33 1484.65 1225.74 1484.48 C 1226.15 1484.31 1226.43 1483.91 1226.44 1483.47 L 1226.66 1361.43 C 1226.66 1360.98 1226.39 1360.57 1225.97 1360.40 C 1225.56 1360.22 1225.08 1360.31 1224.75 1360.62 L 1164.19 1421.53 C 1163.98 1421.74 1163.86 1422.03 1163.86 1422.32 C 1163.86 1422.62 1163.98 1422.91 1164.19 1423.12 L 1224.53 1484.25 Z M 1097.19 1360.75 C 1096.88 1360.43 1096.41 1360.33 1096.00 1360.50 C 1095.59 1360.66 1095.32 1361.05 1095.31 1361.50 L 1095.31 1482.81 C 1095.32 1483.25 1095.59 1483.65 1096.00 1483.81 C 1096.41 1483.97 1096.88 1483.87 1097.19 1483.56 L 1157.81 1422.93 C 1158.02 1422.73 1158.14 1422.45 1158.14 1422.15 C 1158.14 1421.86 1158.02 1421.58 1157.81 1421.37 L 1097.19 1360.75 Z M 1099.03 1486.47 C 1098.77 1486.73 1098.69 1487.13 1098.83 1487.48 C 1098.98 1487.83 1099.31 1488.05 1099.69 1488.06 L 1222.31 1488.06 C 1222.69 1488.05 1223.02 1487.83 1223.17 1487.48 C 1223.31 1487.13 1223.23 1486.73 1222.97 1486.47 L 1161.66 1425.15 C 1161.29 1424.80 1160.71 1424.80 1160.34 1425.15 L 1099.03 1486.47 Z" fill="#523e3f" fill-rule="nonzero" group-id="1" hidden="true" id="形状" node-id="134" stroke="none" target-height="138.25" target-width="138.25" target-x="1091.44" target-y="1353" visibility="hidden"></path><path d="M 996.50 1419.40 L 934.84 1357.84 C 934.55 1357.56 934.46 1357.13 934.61 1356.75 C 934.76 1356.37 935.13 1356.12 935.53 1356.12 L 1058.16 1356.12 C 1058.57 1356.11 1058.94 1356.36 1059.10 1356.74 C 1059.26 1357.12 1059.17 1357.55 1058.88 1357.84 L 997.94 1419.40 C 997.75 1419.60 997.49 1419.71 997.22 1419.71 C 996.95 1419.71 996.69 1419.60 996.50 1419.40 Z" fill="#ff783d" fill-rule="nonzero" group-id="1" hidden="true" id="路径" node-id="135" stroke="none" target-height="63.599976" target-width="124.79999" target-x="934.46" target-y="1356.11" visibility="hidden"></path><path d="M 1131.59 1356.93 C 1161.14 1357.00 1190.73 1356.63 1220.38 1355.84 C 1221.13 1355.82 1221.82 1356.26 1222.12 1356.96 C 1222.42 1357.66 1222.26 1358.47 1221.72 1359.00 L 1162.31 1418.43 C 1161.42 1419.33 1160.51 1419.33 1159.59 1418.43 L 1099.62 1358.62 C 1098.42 1357.39 1098.67 1356.67 1100.38 1356.47 C 1110.69 1355.22 1124.16 1356.90 1131.59 1356.93 Z" fill="#ff783d" fill-rule="nonzero" group-id="1" hidden="true" id="路径" node-id="136" stroke="none" target-height="64.109985" target-width="124" target-x="1098.42" target-y="1355.22" visibility="hidden"></path><path d="M 933.88 1360.65 L 994.12 1421.06 C 994.42 1421.35 994.58 1421.74 994.58 1422.15 C 994.58 1422.56 994.42 1422.96 994.12 1423.25 L 933.88 1483.65 C 933.44 1484.10 932.77 1484.24 932.19 1483.99 C 931.61 1483.75 931.24 1483.19 931.25 1482.56 L 931.25 1361.75 C 931.24 1361.12 931.61 1360.55 932.19 1360.31 C 932.77 1360.07 933.44 1360.21 933.88 1360.65 Z" fill="#ff783d" fill-rule="nonzero" group-id="1" hidden="true" id="路径" node-id="137" stroke="none" target-height="124.170044" target-width="63.340027" target-x="931.24" target-y="1360.07" visibility="hidden"></path><path d="M 1060.75 1483.68 L 999.94 1422.87 C 999.55 1422.47 999.55 1421.83 999.94 1421.43 L 1060.75 1360.62 C 1061.05 1360.33 1061.49 1360.25 1061.88 1360.41 C 1062.26 1360.58 1062.50 1360.96 1062.50 1361.37 L 1062.50 1482.93 C 1062.50 1483.35 1062.26 1483.73 1061.88 1483.89 C 1061.49 1484.06 1061.05 1483.97 1060.75 1483.68 L 1060.75 1483.68 Z" fill="#ff783d" fill-rule="nonzero" group-id="1" hidden="true" id="路径" node-id="138" stroke="none" target-height="123.81006" target-width="62.950012" target-x="999.55" target-y="1360.25" visibility="hidden"></path><path d="M 1224.53 1484.25 L 1164.19 1423.12 C 1163.98 1422.91 1163.86 1422.62 1163.86 1422.32 C 1163.86 1422.03 1163.98 1421.74 1164.19 1421.53 L 1224.75 1360.62 C 1225.08 1360.31 1225.56 1360.22 1225.97 1360.40 C 1226.39 1360.57 1226.66 1360.98 1226.66 1361.43 L 1226.44 1483.47 C 1226.43 1483.91 1226.15 1484.31 1225.74 1484.48 C 1225.33 1484.65 1224.85 1484.56 1224.53 1484.25 L 1224.53 1484.25 Z" fill="#ff783d" fill-rule="nonzero" group-id="1" hidden="true" id="路径" node-id="139" stroke="none" target-height="124.43005" target-width="62.80005" target-x="1163.86" target-y="1360.22" visibility="hidden"></path><path d="M 1097.19 1360.75 L 1157.81 1421.37 C 1158.02 1421.58 1158.14 1421.86 1158.14 1422.15 C 1158.14 1422.45 1158.02 1422.73 1157.81 1422.93 L 1097.19 1483.56 C 1096.88 1483.87 1096.41 1483.97 1096.00 1483.81 C 1095.59 1483.65 1095.32 1483.25 1095.31 1482.81 L 1095.31 1361.50 C 1095.32 1361.05 1095.59 1360.66 1096.00 1360.50 C 1096.41 1360.33 1096.88 1360.43 1097.19 1360.75 L 1097.19 1360.75 Z" fill="#ff783d" fill-rule="nonzero" group-id="1" hidden="true" id="路径" node-id="140" stroke="none" target-height="123.640015" target-width="62.829956" target-x="1095.31" target-y="1360.33" visibility="hidden"></path><path d="M 935.16 1486.40 L 995.94 1424.87 C 996.35 1424.46 997.02 1424.46 997.44 1424.87 L 1058.44 1486.18 C 1058.74 1486.49 1058.83 1486.94 1058.67 1487.34 C 1058.50 1487.74 1058.12 1488.00 1057.69 1488.00 L 935.91 1488.22 C 935.48 1488.21 935.09 1487.96 934.93 1487.56 C 934.76 1487.16 934.85 1486.71 935.16 1486.40 L 935.16 1486.40 Z" fill="#ff783d" fill-rule="nonzero" group-id="1" hidden="true" id="路径" node-id="141" stroke="none" target-height="63.76001" target-width="124.06995" target-x="934.76" target-y="1424.46" visibility="hidden"></path><path d="M 1099.03 1486.47 L 1160.34 1425.15 C 1160.71 1424.80 1161.29 1424.80 1161.66 1425.15 L 1222.97 1486.47 C 1223.23 1486.73 1223.31 1487.13 1223.17 1487.48 C 1223.02 1487.83 1222.69 1488.05 1222.31 1488.06 L 1099.69 1488.06 C 1099.31 1488.05 1098.98 1487.83 1098.83 1487.48 C 1098.69 1487.13 1098.77 1486.73 1099.03 1486.47 L 1099.03 1486.47 Z" fill="#ff783d" fill-rule="nonzero" group-id="1" hidden="true" id="路径" node-id="142" stroke="none" target-height="63.26001" target-width="124.62012" target-x="1098.69" target-y="1424.8" visibility="hidden"></path></g></svg>